<svg xmlns="http://www.w3.org/2000/svg" width="70" height="70" fill="none" viewBox="0 0 70 70">
    <path fill="#231F20" d="M33.142 33.317h-.509V63h.51V33.317zM36.868 33.317h-.509V63h.509V33.317zM34.756 30.851c.507 0 .918-.41.918-.917 0-.507-.411-.918-.918-.918-.507 0-.917.41-.917.918 0 .506.41.917.917.917zM34.756 42.901c.507 0 .918-.41.918-.917 0-.507-.411-.918-.918-.918-.507 0-.917.411-.917.918 0 .506.41.917.917.917zM34.756 54.963c.507 0 .918-.411.918-.918 0-.507-.411-.917-.918-.917-.507 0-.917.41-.917.917 0 .507.41.918.917.918zM34.734 26.197h-.453c-6.9-1.05-13.149-4.671-17.49-10.138-.424-.458-.753-.996-.967-1.582-.215-.587-.31-1.21-.282-1.834.049-.232.147-.451.288-.642.142-.19.322-.349.53-.463h.089C20.517 9.327 27.36 8 34.756 8c7.396 0 14.24 1.327 18.308 3.538h.088c.208.114.389.272.53.463.141.19.24.41.288.642.029.624-.067 1.247-.281 1.834-.215.586-.544 1.124-.968 1.582-4.288 5.536-10.567 9.18-17.5 10.16l-.487-.022zm0-17.81c-7.307 0-14.062 1.304-18.064 3.471h-.078c-.15.08-.28.193-.38.33-.1.139-.166.298-.194.466-.023 1.11.371 2.187 1.105 3.018 4.253 5.37 10.385 8.926 17.158 9.95.268.028.539.028.807 0 6.791-.962 12.941-4.53 17.147-9.95.754-.823 1.169-1.901 1.16-3.018-.028-.168-.094-.327-.194-.465s-.23-.251-.38-.33h-.078C48.82 9.69 42.063 8.386 34.756 8.386h-.022z"/>
    <path fill="#231F20" d="M26.155 41.055c-.146-.015-.288-.062-.414-.139-.127-.076-.234-.18-.315-.303-.089-.11-10.337-13.134-11.553-14.803-.38-.408-.65-.907-.781-1.45-.132-.541-.122-1.108.03-1.645l2.398-9.95.498.121-2.41 10.028c-.12.461-.122.945-.004 1.408.118.462.351.886.678 1.234 1.216 1.658 11.464 14.67 11.564 14.803.1.133.188.243.32.22.133-.021.244-.065.465-.662.1-.255.21-.63.353-1.106 1.279-4.643 3.323-9.04 6.048-13.012l.42.288c-2.686 3.932-4.707 8.28-5.981 12.868-.144.508-.254.895-.354 1.16-.232.62-.52.951-.884.995l-.078-.055z"/>
    <path fill="#231F20" d="M34.756 33.748c-1.86.019-3.703-.358-5.406-1.106l.221-.475c3.327 1.341 7.044 1.341 10.37 0l.221.475c-1.703.748-3.546 1.125-5.406 1.106zM34.756 30.84c.507 0 .918-.41.918-.917 0-.507-.411-.918-.918-.918-.507 0-.917.41-.917.918 0 .506.41.917.917.917z"/>
    <path fill="#231F20" d="M43.357 41.055h-.077c-.365 0-.652-.376-.884-.995-.1-.265-.21-.652-.354-1.16-1.272-4.597-3.293-8.952-5.981-12.89l.42-.288c2.725 3.97 4.769 8.368 6.047 13.012.144.486.255.862.354 1.105.221.597.409.663.464.663.056 0 .255-.132.31-.21.055-.077 10.359-13.155 11.575-14.814.322-.34.554-.757.673-1.211.12-.454.124-.93.012-1.387l-2.421-10.07.498-.123 2.42 10.039c.135.533.134 1.09-.001 1.623-.135.533-.4 1.023-.772 1.428-1.216 1.67-11.465 14.692-11.575 14.814-.072.128-.174.238-.297.319-.123.08-.264.13-.41.145z"/>
    <path fill="#231F20" d="M19.854 19.31l-.166-.487c9.77-2.837 20.143-2.86 29.927-.066l-.155.486c-4.767-1.435-9.726-2.129-14.704-2.056-5.048-.081-10.077.635-14.902 2.122z"/>
</svg>
