<svg xmlns="http://www.w3.org/2000/svg" width="70" height="70" fill="none" viewBox="0 0 70 70">
    <path fill="#231F20" d="M34.722 26.215h-.442c-6.906-1.045-13.156-4.676-17.486-10.157-.427-.457-.76-.994-.976-1.58-.216-.587-.313-1.211-.284-1.836.051-.231.15-.45.291-.64s.32-.349.527-.465h.089C20.519 9.327 27.36 8 34.745 8c7.383 0 14.236 1.326 18.303 3.537h.1c.206.116.386.275.527.465.141.19.24.409.29.64.027.625-.07 1.248-.287 1.834-.216.587-.546 1.124-.972 1.582-4.284 5.533-10.557 9.178-17.486 10.157h-.498zm0-17.806c-7.306 0-14.059 1.304-18.06 3.47h-.078c-.146.085-.273.2-.372.337-.099.137-.168.294-.202.46-.014 1.119.406 2.2 1.171 3.017 4.248 5.368 10.375 8.924 17.144 9.948.268.027.538.027.806 0 6.792-.959 12.942-4.527 17.144-9.948.743-.826 1.14-1.907 1.105-3.018-.028-.168-.095-.327-.194-.465-.1-.138-.23-.251-.38-.33-4.002-2.167-10.744-3.471-18.061-3.471h-.023z"/>
    <path fill="#231F20" d="M26.145 41.07c-.145-.016-.284-.064-.408-.14-.124-.077-.23-.18-.31-.301-.1-.11-10.346-13.131-11.562-14.8-.374-.412-.64-.91-.771-1.452-.132-.54-.125-1.106.02-1.643l2.398-9.948.509.122-2.42 10.025c-.12.462-.12.947 0 1.41.12.462.355.886.684 1.232 1.205 1.658 11.451 14.667 11.55 14.8.1.132.178.243.332.22.155-.022.243-.066.465-.663.088-.254.199-.63.342-1.105 1.288-4.639 3.331-9.034 6.046-13.01l.431.288c-2.69 3.929-4.71 8.276-5.98 12.866-.154.508-.265.895-.364 1.16-.232.62-.52.95-.884.995l-.078-.055z"/>
    <path fill="#231F20" d="M34.745 33.765c-1.857.02-3.696-.357-5.394-1.106l.21-.475c3.325 1.341 7.042 1.341 10.367 0l.221.475c-1.702.749-3.545 1.126-5.404 1.106zM34.745 30.858c.506 0 .917-.411.917-.918 0-.506-.41-.917-.917-.917-.507 0-.918.41-.918.917 0 .507.411.918.918.918z"/>
    <path fill="#231F20" d="M43.344 41.07h-.066c-.365 0-.664-.375-.885-.994-.1-.266-.22-.663-.364-1.16-1.27-4.59-3.29-8.938-5.98-12.867l.42-.287c2.724 3.972 4.77 8.368 6.057 13.01.144.486.254.862.343 1.105.22.597.409.663.464.663.11 0 .254-.144.298-.21.044-.066 10.357-13.153 11.573-14.811.321-.342.553-.758.675-1.211.121-.453.129-.93.021-1.387l-2.432-10.069.498-.122 2.42 10.037c.14.532.143 1.091.008 1.625-.136.534-.404 1.024-.781 1.425-1.216 1.67-11.462 14.69-11.562 14.811-.078.122-.181.225-.304.301-.122.077-.26.125-.403.142z"/>
    <path fill="#231F20" d="M19.9 19.33l-.165-.487c9.768-2.836 20.139-2.859 29.92-.066l-.155.486c-9.676-2.763-19.936-2.74-29.6.066zM31.34 33.068h-.508V63h.508V33.068zM38.657 33.068h-.508V63h.508V33.068zM34.745 30.858c.506 0 .917-.411.917-.918 0-.506-.41-.917-.917-.917-.507 0-.918.41-.918.917 0 .507.411.918.918.918zM34.745 42.917c.506 0 .917-.41.917-.918 0-.506-.41-.917-.917-.917-.507 0-.918.41-.918.917 0 .507.411.918.918.918zM34.745 54.975c.506 0 .917-.41.917-.917 0-.507-.41-.917-.917-.917-.507 0-.918.41-.918.917 0 .507.411.917.918.917z"/>
</svg>
