<svg xmlns="http://www.w3.org/2000/svg" width="70" height="70" fill="none" viewBox="0 0 70 70">
    <path fill="#231F20" d="M34.73 26.215h-.453c-6.903-1.055-13.15-4.684-17.486-10.157-.425-.458-.753-.996-.968-1.583-.214-.586-.31-1.209-.281-1.833.048-.232.147-.451.288-.642.14-.19.322-.349.53-.463h.088C20.516 9.327 27.358 8 34.752 8c7.394 0 14.236 1.326 18.304 3.537h.088c.208.114.389.272.53.463.141.191.24.41.288.642.028.624-.068 1.247-.282 1.833-.215.586-.543 1.124-.967 1.583-4.288 5.534-10.565 9.178-17.497 10.157h-.486zM16.537 11.66l.132.22c-.15.08-.28.193-.38.331-.1.138-.167.297-.195.465-.023 1.11.372 2.186 1.106 3.018 4.25 5.371 10.381 8.927 17.154 9.948.268.027.539.027.807 0 6.791-.959 12.941-4.527 17.143-9.948.754-.823 1.169-1.901 1.16-3.018-.027-.168-.094-.327-.193-.465-.1-.138-.23-.251-.381-.33h-.078c-4-2.211-10.754-3.471-18.06-3.471-7.306 0-14.06 1.304-18.06 3.47l-.155-.22z"/>
    <path fill="#231F20" d="M26.153 41.07c-.147-.014-.289-.062-.415-.138-.126-.077-.234-.18-.315-.303-.088-.111-10.334-13.131-11.55-14.8-.38-.409-.65-.907-.781-1.45-.132-.542-.122-1.108.03-1.645l2.398-9.948.497.122-2.41 10.025c-.123.46-.126.946-.008 1.409.118.462.353.887.683 1.232 1.216 1.658 11.462 14.668 11.561 14.8.1.133.188.243.32.221.133-.022.244-.066.465-.663.1-.254.21-.63.354-1.105 1.286-4.64 3.329-9.035 6.046-13.01l.42.288c-2.685 3.932-4.705 8.278-5.98 12.866-.144.497-.254.895-.354 1.16-.232.62-.52.95-.884.995l-.077-.055z"/>
    <path fill="#231F20" d="M34.752 33.765c-1.86.019-3.702-.358-5.405-1.105l.221-.476c3.326 1.342 7.042 1.342 10.368 0l.22.476c-1.702.747-3.544 1.124-5.404 1.105zM34.752 30.858c.506 0 .917-.411.917-.918 0-.506-.41-.917-.917-.917-.507 0-.918.41-.918.917 0 .507.411.918.918.918z"/>
    <path fill="#231F20" d="M43.351 41.07h-.077c-.365 0-.652-.375-.885-.994-.099-.265-.21-.663-.353-1.16-1.275-4.588-3.295-8.934-5.98-12.866l.42-.288c2.717 3.975 4.76 8.37 6.046 13.01.144.486.254.862.354 1.105.22.597.409.663.453.663.044 0 .265-.132.32-.21.056-.077 10.357-13.153 11.562-14.81.325-.34.56-.756.681-1.21.122-.454.127-.932.015-1.388l-2.42-10.07.497-.121 2.42 10.036c.134.533.134 1.09-.001 1.623-.135.532-.4 1.023-.772 1.427-1.216 1.67-11.462 14.69-11.572 14.812-.075.124-.178.229-.301.306-.123.077-.262.123-.407.136z"/>
    <path fill="#231F20" d="M19.852 19.33l-.154-.487c9.768-2.836 20.14-2.859 29.92-.066l-.154.486c-9.68-2.763-19.944-2.74-29.612.066zM31.348 33.068h-.509V63h.509V33.068zM34.752 30.858c.506 0 .917-.411.917-.918 0-.506-.41-.917-.917-.917-.507 0-.918.41-.918.917 0 .507.411.918.918.918zM34.752 42.917c.506 0 .917-.411.917-.918 0-.507-.41-.917-.917-.917-.507 0-.918.41-.918.917 0 .507.411.918.918.918zM34.752 54.975c.506 0 .917-.41.917-.917 0-.507-.41-.917-.917-.917-.507 0-.918.41-.918.917 0 .507.411.917.918.917z"/>
</svg>
