<svg xmlns="http://www.w3.org/2000/svg" width="70" height="70" fill="none" viewBox="0 0 70 70">
    <path fill="#231F20" d="M34.731 26.215h-.453C27.372 25.17 21.12 21.54 16.792 16.058c-.426-.458-.756-.995-.973-1.582-.216-.586-.314-1.21-.287-1.834.05-.231.15-.45.29-.64.142-.19.321-.349.528-.465h.088C20.517 9.327 27.358 8 34.753 8c7.395 0 14.225 1.326 18.304 3.537h.088c.207.116.387.275.528.465.14.19.24.409.29.64.03.625-.067 1.249-.284 1.836-.216.586-.548 1.123-.976 1.58-4.283 5.533-10.557 9.178-17.486 10.157h-.486zm0-17.806c-7.317 0-14.06 1.304-18.06 3.47h-.089c-.149.081-.277.195-.375.333-.097.138-.162.296-.189.463-.034 1.111.362 2.192 1.106 3.018 4.25 5.371 10.381 8.927 17.154 9.948.264.027.531.027.796 0 6.79-.959 12.94-4.527 17.143-9.948.766-.817 1.186-1.898 1.172-3.018-.029-.168-.095-.327-.195-.465s-.23-.251-.38-.33c-4.001-2.167-10.755-3.471-18.017-3.471h-.066z"/>
    <path fill="#231F20" d="M26.143 41.07c-.145-.016-.284-.064-.409-.14-.124-.077-.23-.18-.31-.301-.088-.111-10.334-13.131-11.55-14.8-.377-.41-.644-.91-.778-1.45-.133-.541-.128-1.107.015-1.645l2.41-9.948.497.122-2.42 10.025c-.12.462-.12.947 0 1.41.12.462.355.886.685 1.231 1.216 1.658 11.45 14.668 11.561 14.8.11.133.2.221.31.221 0 0 .243-.066.464-.663.088-.254.2-.63.343-1.105 1.286-4.642 3.333-9.037 6.057-13.01l.42.288c-2.69 3.929-4.71 8.276-5.98 12.866-.144.497-.265.895-.365 1.16-.232.62-.52.95-.884.995l-.066-.055z"/>
    <path fill="#231F20" d="M34.797 33.765c-1.86.02-3.702-.357-5.404-1.105l.22-.476c3.326 1.342 7.042 1.342 10.368 0l.21.476c-1.698.748-3.537 1.125-5.394 1.105zM34.753 30.858c.507 0 .918-.411.918-.918 0-.506-.411-.917-.918-.917-.507 0-.917.41-.917.917 0 .507.41.918.917.918z"/>
    <path fill="#231F20" d="M43.352 41.07h-.077c-.365 0-.652-.375-.884-.994-.1-.265-.21-.663-.365-1.16-1.269-4.59-3.29-8.937-5.98-12.866l.431-.288c2.718 3.975 4.76 8.37 6.047 13.01.143.486.254.862.342 1.105.221.597.409.663.464.663.11 0 .244-.143.299-.21.055-.066 10.345-13.153 11.561-14.81.325-.34.56-.756.681-1.21.122-.454.127-.932.015-1.388l-2.431-10.07.508-.121 2.41 10.036c.135.532.136 1.089.003 1.621-.133.533-.396 1.024-.766 1.43-1.216 1.668-11.473 14.69-11.572 14.81-.075.12-.175.221-.294.298-.118.076-.252.126-.392.145z"/>
    <path fill="#231F20" d="M19.843 19.33l-.166-.487c9.773-2.833 20.146-2.856 29.931-.066l-.165.486c-9.677-2.763-19.936-2.74-29.6.067zM31.338 33.068h-.509V63h.509V33.068zM38.666 33.068h-.508V63h.508V33.068zM34.753 30.858c.507 0 .918-.411.918-.918 0-.506-.411-.917-.918-.917-.507 0-.917.41-.917.917 0 .507.41.918.917.918z"/>
</svg>
