<svg xmlns="http://www.w3.org/2000/svg" width="70" height="70" fill="none" viewBox="0 0 70 70">
    <path fill="#000" d="M47.28 58H23.14L15 51.305V13h40.48v38.305l-.08.06L47.28 58zm-23.94-.406h23.8l7.94-6.523V13.365H15.4v37.706l7.94 6.523z"/>
    <path fill="#000" d="M16.22 22.09h-.94v.405h.94v-.406zM53.31 22.495h-1.9v-.406h1.9v.406zm-2.85 0h-1.9v-.406h1.9v.406zm-2.85 0H45.7v-.406h1.91v.406zm-2.86 0h-1.9v-.406h1.9v.406zm-2.85 0H40v-.406h1.9v.406zm-2.86 0h-1.9v-.406h1.9v.406zm-2.85 0h-1.9v-.406h1.9v.406zm-2.85 0h-1.91v-.406h1.91v.406zm-2.86 0h-1.9v-.406h1.9v.406zm-2.85 0h-1.87v-.406h1.9l-.03.406zm-2.85 0h-1.91v-.406h1.89l.02.406zm-2.86 0h-1.9v-.406h1.9v.406zm-2.85 0h-1.9v-.406h1.9v.406zM55.2 22.09h-.94v.405h.94v-.406z"/>
</svg>
