<svg xmlns="http://www.w3.org/2000/svg" width="70" height="70" fill="none" viewBox="0 0 70 70">
    <path fill="#231F20" d="M34.5 58c-4.45 0-8.8-1.32-12.5-3.792-3.7-2.472-6.584-5.986-8.287-10.098-1.703-4.111-2.149-8.635-1.28-13 .867-4.364 3.01-8.373 6.157-11.52 3.147-3.147 7.156-5.29 11.52-6.158 4.365-.868 8.889-.422 13 1.28C47.222 16.417 50.736 19.3 53.208 23 55.68 26.7 57 31.05 57 35.5c-.01 5.965-2.383 11.682-6.6 15.9-4.218 4.217-9.935 6.59-15.9 6.6zm0-44.416c-4.332.01-8.565 1.303-12.163 3.717-3.598 2.413-6.4 5.84-8.051 9.845-1.652 4.005-2.079 8.41-1.228 12.658.85 4.248 2.942 8.149 6.009 11.21 3.066 3.06 6.971 5.142 11.221 5.984 4.25.842 8.654.405 12.656-1.255 4.002-1.66 7.422-4.47 9.828-8.072 2.406-3.603 3.69-7.838 3.69-12.171-.003-2.881-.573-5.733-1.679-8.394-1.105-2.66-2.724-5.077-4.763-7.112-2.04-2.035-4.46-3.649-7.123-4.748-2.663-1.1-5.516-1.665-8.397-1.662z"/>
    <path fill="#231F20" d="M19.007 19.587l-.413.413 31.407 31.407.413-.413-31.407-31.407z"/>
</svg>
