<svg xmlns="http://www.w3.org/2000/svg" width="70" height="70" fill="none" viewBox="0 0 70 70">
    <path fill="#000" d="M35.487 58l-.092-.05L15 47.482V13h40.974v34.483L35.487 58zM15.406 47.24l20.08 10.303L55.569 47.24V13.426H15.406v33.813z"/>
    <path fill="#000" d="M35.436 28.963L15 23.243V13.03h40.974v10.213l-20.538 5.72zm-20.08-6.085l20.08 5.619 20.081-5.619v-9.503H15.355v9.503z"/>
    <path fill="#000" d="M35.957 24.674c1.081 0 1.958-.877 1.958-1.958s-.877-1.957-1.958-1.957c-1.08 0-1.957.876-1.957 1.957s.876 1.957 1.957 1.957z"/>
</svg>
