<svg xmlns="http://www.w3.org/2000/svg" width="70" height="70" fill="none" viewBox="0 0 70 70">
    <path fill="#231F20" d="M36.09 23.32c-.884-.328-1.844-.392-2.764-.182-.92.21-1.758.682-2.412 1.361-2.43 2.359-5.59 6.392-6.604 15 0 0-1.073 9.692 3.974 12.652l21.803 6.12c-.776-.387-1.46-.936-2.007-1.61-.547-.672-.944-1.454-1.165-2.293-1.46-6.005-.793-12.331 1.887-17.9 0 0 2.016-6.19 7.405-7.335L36.09 23.32z"/>
    <path fill="#231F20" d="M51.561 58.907c-.285-.002-.57-.033-.849-.094-4.162-.884-6.025-8.125-4.257-16.508 1.781-8.36 6.427-14.15 10.613-13.337 4.186.814 6.037 8.125 4.257 16.509-1.675 7.806-5.837 13.43-9.764 13.43zM47.27 42.493c-1.65 7.783 0 14.74 3.62 15.518 3.62.778 7.96-4.929 9.61-12.7 1.651-7.77 0-14.74-3.62-15.517-3.62-.779-7.96 4.928-9.61 12.7z"/>
    <path fill="#231F20" d="M50.689 58.801l-21.945-6.238c-4.139-.872-6.002-8.124-4.233-16.508 1.769-8.384 6.438-14.15 10.613-13.337l21.968 6.238-.224.802-21.945-6.238c-3.644-.754-7.936 4.93-9.587 12.712-1.65 7.782 0 14.74 3.62 15.506l21.969 6.238-.236.825z"/>
    <path fill="#fff" d="M44.239 43.65c-.526 0-1.051-.047-1.569-.142-3.644-.673-18.867-4.08-18.985-4.116l.177-.802c.154 0 15.33 3.432 18.962 4.104 3.962.73 4.787-1.604 4.822-1.698l.79.247s-.825 2.406-4.197 2.406z"/>
    <path fill="#231F20" d="M33.473 23.19s-.33-1.096-5.248-3.077C22.695 17.884 7.177 12.837 7 12.778L7.26 12c.153 0 15.694 5.106 21.225 7.334 5.306 2.147 5.801 3.408 5.766 3.856l-.826-.07h.413l-.365.07zM24.04 50.77c-.533-.004-1.065-.043-1.593-.117-2.688-.354-14.857-2.877-15.33-2.983l.166-.802c.13 0 12.664 2.618 15.33 2.971 2.358.319 3.112-.176 3.124-.188l.53.637c-.664.413-1.451.584-2.228.483zM7.19 38.846l-.177.807 17.067 3.755.178-.806L7.19 38.847zM7.204 35.508l-.187.804 17.068 3.966.187-.804L7.204 35.51z"/>
    <path fill="#fff" d="M32.942 37.966c.95 0 1.722-.771 1.722-1.722 0-.95-.771-1.721-1.722-1.721-.95 0-1.722.77-1.722 1.721 0 .95.771 1.722 1.722 1.722zM40.182 39.84c.95 0 1.722-.77 1.722-1.722 0-.95-.771-1.721-1.722-1.721-.95 0-1.721.77-1.721 1.721 0 .951.77 1.722 1.721 1.722z"/>
</svg>
