<svg xmlns="http://www.w3.org/2000/svg" width="70" height="70" fill="none" viewBox="0 0 70 70">
    <path fill="#231F20" d="M32.788 23.792s-.319-1.068-5.067-2.976c-5.317-2.147-20.267-7.01-20.448-7.055l.25-.761c.147 0 15.12 4.919 20.448 7.077 5.112 2.057 5.578 3.283 5.555 3.704h-.795.397l-.34.011zM20.541 49.455c-1.397-.193-9.838-1.761-13.541-2.5l.159-.783c3.692.738 12.099 2.272 13.485 2.488l-.103.795zM7.593 39.11l-.17.777 16.441 3.62.171-.776-16.442-3.62zM7.571 35.786l-.18.775 16.443 3.82.18-.774-16.443-3.82z"/>
    <path fill="#231F20" d="M39.059 23.997c-2.273-.557-5.817-1.75-9.157 1.67-2.255 3.352-3.965 7.041-5.067 10.928 0 0-.409 2.272-.579 2.977-1.07 4.03-3.15 7.721-6.044 10.724l22.72 5.191c.892-.884 1.698-1.85 2.41-2.885.329-.75 2.737-6.816 2.737-6.816l2.59-7.453 2.272-5.407c.603-1.175 1.478-2.187 2.554-2.952 1.076-.765 2.32-1.26 3.626-1.445l-18.063-4.532z"/>
    <path fill="#231F20" d="M41.07 55.93h-.092l-23.152-5.18c-.072-.016-.139-.052-.192-.104-.053-.052-.091-.117-.109-.19-.017-.072-.015-.147.009-.218.023-.07.065-.133.122-.18 3.715-3.16 5.373-8.362 6.975-13.406.875-3.051 2.015-6.02 3.408-8.872.825-1.801 2.266-3.249 4.063-4.082 1.798-.833 3.833-.997 5.74-.462l20.45 5.112h.158l.341.09h.193c.917.344 1.701.969 2.242 1.785.54.816.81 1.782.769 2.76.216 7.725-6.123 14.427-12.088 17.38-3.016 1.515-5.89 3.298-8.588 5.329-.02.056-.053.107-.097.148-.043.042-.095.073-.153.09zm-22.323-5.794l22.186 4.965c2.75-3.056 4.328-7.793 5.987-12.803 1.01-3.337 2.282-6.588 3.805-9.724.483-.974 1.162-1.837 1.995-2.535.833-.698 1.802-1.216 2.845-1.521l-17.938-4.544c-1.728-.505-3.58-.366-5.213.39-1.634.756-2.938 2.078-3.67 3.723-1.392 2.81-2.532 5.736-3.409 8.747-1.5 4.93-3.101 9.974-6.588 13.302zm38.5-21.061c-1.228.06-2.417.45-3.441 1.13-1.024.68-1.845 1.624-2.376 2.732-1.499 3.101-2.752 6.315-3.75 9.611-1.374 4.124-2.68 8.054-4.645 11.088 2.084-1.417 4.258-2.696 6.509-3.829 5.76-2.84 11.86-9.27 11.656-16.643.051-.847-.178-1.688-.652-2.393-.474-.704-1.168-1.233-1.973-1.503l-.465-.114c-.285-.05-.574-.076-.864-.08zM40.524 57.111h-.091l-22.72-5.1c-.052-.01-.101-.032-.145-.062-.043-.03-.08-.068-.109-.112-.028-.045-.048-.095-.057-.147-.01-.051-.008-.105.004-.156.027-.101.091-.188.18-.243.088-.055.195-.074.297-.053L40.66 56.34c.103.024.191.088.246.178.056.09.073.197.05.3-.022.094-.079.176-.159.231-.08.055-.177.077-.273.063z"/>
    <path fill="#fff" d="M30.436 49.455c-.071.015-.145.015-.216 0-.087-.06-.148-.152-.169-.256-.021-.103-.001-.212.056-.3.908-1.42 1.976-3.193 1.976-3.193l.682.42s-1.136 1.772-1.988 3.204c-.044.045-.097.08-.156.1-.06.023-.122.03-.185.025z"/>
</svg>
