<svg xmlns="http://www.w3.org/2000/svg" width="70" height="70" fill="none" viewBox="0 0 70 70">
    <path fill="#231F20" d="M35.553 61.74c-5.948 0-9.668-1.65-11.738-3.027-1.267-.78-2.344-1.831-3.153-3.079v-.158c3.153-13.723 1.619-21.825 1.598-21.91.22-7.355-2.396-16.739-2.417-16.813l.399-.115c0 .105 2.659 9.594 2.438 16.918 0 0 1.566 8.186-1.597 21.952.346.557 3.92 5.842 14.459 5.842 5.822 0 9.457-1.607 11.475-2.952 1.194-.742 2.217-1.727 3.005-2.89-3.152-13.766-1.607-21.92-1.586-22.004-.232-7.272 2.406-16.814 2.427-16.814l.4.116c0 .095-2.638 9.53-2.417 16.813 0 .126-1.556 8.228 1.607 21.952v.137c-.806 1.255-1.883 2.315-3.152 3.1-2.123 1.282-5.843 2.931-11.748 2.931z"/>
    <path fill="#231F20" d="M57.178 52.933l-.073-.178-8.68-19.147.378-.167 8.607 18.914 5.128-1.828c-.725-2.301-7.776-24.537-10.624-31.987-.25-.646-.605-1.246-1.051-1.776-1.345-1.43-8.27-3.615-8.343-3.636h-.106l-.987-3.552c-.347-.2-2.176-1.156-6.18-1.156V8c4.614 0 6.4 1.219 6.474 1.272h.063l.977 3.478c.925.294 7.062 2.29 8.407 3.72.448.578.803 1.223 1.05 1.912 2.995 7.84 10.624 31.956 10.698 32.197l.063.19-5.8 2.164z"/>
    <path fill="#231F20" d="M61.335 46.637l-5.849 2.21.093.246 5.849-2.21-.093-.246z"/>
    <path fill="#231F20" d="M57.178 52.933l-.073-.178-8.68-19.147.378-.167 8.607 18.914 5.128-1.828c-.725-2.301-7.776-24.537-10.624-31.987-.25-.646-.605-1.246-1.051-1.776-1.345-1.43-8.27-3.615-8.343-3.636h-.106l-.987-3.552c-.347-.2-2.176-1.156-6.18-1.156V8c4.614 0 6.4 1.219 6.474 1.272h.063l.977 3.478c.925.294 7.062 2.29 8.407 3.72.448.578.803 1.223 1.05 1.912 2.995 7.84 10.624 31.956 10.698 32.197l.063.19-5.8 2.164z"/>
    <path fill="#231F20" d="M61.306 46.565l-5.847 2.215.149.393 5.846-2.215-.148-.393zM13.885 52.933L8 50.832l.063-.19c.084-.241 7.703-24.358 10.697-32.197.248-.688.603-1.334 1.051-1.912 1.345-1.43 7.482-3.426 8.407-3.72l.966-3.478h.064c.073 0 1.86-1.272 6.473-1.272v.42c-4.004 0-5.832.957-6.18 1.156l-.987 3.552h-.105c-.074 0-6.998 2.207-8.344 3.636-.45.526-.806 1.127-1.05 1.776-2.859 7.45-9.91 29.686-10.635 31.987l5.139 1.828 8.595-18.914.379.168-8.648 19.261z"/>
    <path fill="#231F20" d="M9.661 46.374l-.148.393 5.847 2.214.149-.393-5.848-2.214z"/>
    <path fill="#231F20" d="M13.885 52.933L8 50.832l.063-.19c.084-.241 7.703-24.358 10.697-32.197.248-.688.603-1.334 1.051-1.912 1.345-1.43 7.482-3.426 8.407-3.72l.966-3.478h.064c.073 0 1.86-1.272 6.473-1.272v.42c-4.004 0-5.832.957-6.18 1.156l-.987 3.552h-.105c-.074 0-6.998 2.207-8.344 3.636-.45.526-.806 1.127-1.05 1.776-2.859 7.45-9.91 29.686-10.635 31.987l5.139 1.828 8.595-18.914.379.168-8.648 19.261z"/>
    <path fill="#231F20" d="M9.661 46.374l-.148.393 5.847 2.214.149-.393-5.848-2.214zM35.532 16.796c-1.198 0-2.386-.547-2.386-1.051h.42c.559.445 1.252.687 1.965.687.715 0 1.407-.242 1.965-.687h.41c0 .504-1.177 1.05-2.374 1.05z"/>
    <path fill="#231F20" d="M34.901 16.502h-.42v45.1h.42v-45.1zM35.532 15.797c.168 0 .304-.136.304-.304 0-.169-.136-.305-.304-.305-.169 0-.305.136-.305.305 0 .168.136.304.305.304zM35.532 22.102c.168 0 .304-.136.304-.304 0-.169-.136-.305-.304-.305-.169 0-.305.136-.305.305 0 .168.136.304.305.304zM35.532 28.407c.168 0 .304-.136.304-.305 0-.168-.136-.304-.304-.304-.169 0-.305.136-.305.305 0 .168.136.304.305.304zM35.532 34.712c.168 0 .304-.136.304-.305 0-.168-.136-.304-.304-.304-.169 0-.305.136-.305.304 0 .169.136.305.305.305zM35.532 41.017c.168 0 .304-.136.304-.305 0-.168-.136-.304-.304-.304-.169 0-.305.136-.305.304 0 .169.136.305.305.305zM35.532 47.322c.168 0 .304-.137.304-.305 0-.168-.136-.305-.304-.305-.169 0-.305.137-.305.305 0 .168.136.305.305.305zM35.532 53.627c.168 0 .304-.136.304-.305 0-.168-.136-.304-.304-.304-.169 0-.305.136-.305.304 0 .169.136.305.305.305z"/>
    <path fill="#fff" fill-rule="evenodd" d="M28.449 12.981s2.774 5.075 4.203 6.305c.59-1.811 1.39-3.546 2.386-5.17" clip-rule="evenodd"/>
    <path fill="#231F20" d="M32.652 19.507c-.044.014-.092.014-.136 0-1.461-1.25-4.204-6.169-4.277-6.379-.024-.049-.028-.105-.013-.158.016-.052.05-.097.097-.125.05-.024.105-.028.158-.013.052.016.097.05.126.097 1.137 2.126 2.46 4.147 3.95 6.042.569-1.73 1.345-3.386 2.312-4.928.04-.039.093-.06.148-.06.055 0 .107.021.147.06.02.018.036.041.047.066.012.026.017.053.017.08 0 .028-.005.056-.017.081-.01.025-.027.048-.047.067-.98 1.605-1.77 3.319-2.354 5.107-.013.032-.034.06-.059.084-.025.024-.055.041-.088.052l-.01-.073z"/>
    <path fill="#fff" fill-rule="evenodd" d="M42.625 12.981s-2.775 5.075-4.204 6.305c-.59-1.811-1.39-3.546-2.385-5.17" clip-rule="evenodd"/>
    <path fill="#231F20" d="M38.4 19.507c-.034-.009-.065-.026-.09-.05-.026-.024-.046-.054-.057-.087-.583-1.788-1.373-3.502-2.354-5.107-.02-.02-.036-.046-.046-.073-.01-.028-.015-.057-.013-.086.002-.03.01-.058.023-.084.014-.026.032-.049.055-.067.023-.019.05-.032.077-.04.029-.007.058-.009.087-.004.029.004.057.015.081.03.025.016.046.037.062.061.968 1.544 1.748 3.199 2.322 4.929 1.492-1.895 2.814-3.917 3.951-6.043.029-.046.074-.08.126-.096.053-.016.109-.011.158.012.047.029.081.074.097.126.015.053.01.109-.013.158-.115.21-2.816 5.128-4.277 6.379-.026.02-.057.035-.09.042-.032.008-.066.008-.099 0z"/>
    <path fill="#231F20" d="M35.532 14.441c-.184-.02-.364-.061-.536-.126-6.305-2.101-5.79-4.791-5.77-4.896l.41.094s-.42 2.396 5.496 4.414c.13.046.264.08.4.105.135-.025.269-.06.399-.105 5.969-2.028 5.506-4.393 5.496-4.414l.41-.094c0 .105.546 2.753-5.77 4.896-.172.065-.352.107-.535.127z"/>
    <path fill="#000" fill-rule="evenodd" d="M19.906 16.911c1.654 5.45 2.48 11.118 2.448 16.813l-8.627 19-5.611-1.934 8.9-26.702s2.05-6.557 2.89-7.177z" clip-rule="evenodd"/>
    <path fill="#fff" d="M15.681 49.277l-6.588-2.501.147-.389 6.589 2.5-.148.39z"/>
    <path fill="#000" fill-rule="evenodd" d="M51.2 16.911c-1.649 5.451-2.47 11.119-2.439 16.813l8.628 19L63 50.79l-8.9-26.702s-2.05-6.557-2.9-7.177z" clip-rule="evenodd"/>
    <path fill="#fff" d="M55.434 49.277l-.147-.39 6.589-2.5.147.389-6.589 2.5z"/>
</svg>
