<svg xmlns="http://www.w3.org/2000/svg" width="70" height="70" fill="none" viewBox="0 0 70 70">
    <path fill="#231F20" d="M39.073 23.776c-.885-.328-1.846-.392-2.766-.182-.92.21-1.76.683-2.415 1.362-2.126 1.777-3.877 3.96-5.149 6.423-1.272 2.461-2.041 5.152-2.26 7.915 0 0-.72 5.9.979 9.9.731 1.711-.46 4.106 2.596 4.909l20.532 4.72c-1.63-1.072-2.85-2.665-3.458-4.52-1.468-6.005-.8-12.334 1.888-17.9 0 0 2.018-6.195 7.4-7.34l-17.347-5.287z"/>
    <path fill="#231F20" d="M51.557 58.988c-.277.002-.554-.026-.826-.083-4.165-.885-6.041-8.13-4.26-16.52.693-3.61 2.167-7.026 4.32-10.006 2.005-2.585 4.236-3.776 6.277-3.34 4.165.885 6.042 8.13 4.26 16.52-.69 3.608-2.165 7.02-4.319 9.995-1.735 2.254-3.646 3.434-5.452 3.434zm4.72-29.194c-1.534 0-3.21 1.086-4.79 3.116-2.076 2.88-3.498 6.178-4.166 9.664-1.652 7.788 0 14.75 3.623 15.517 1.722.366 3.658-.708 5.463-3.044 2.078-2.874 3.5-6.17 4.166-9.653 1.652-7.788 0-14.75-3.623-15.529-.236-.054-.478-.082-.72-.082l.047.011z"/>
    <path fill="#231F20" d="M50.696 58.882l-19.683-5.794c-2.018-.425-3.54-2.36-4.354-5.605-.684-3.601-.644-7.303.118-10.89.762-3.585 2.23-6.984 4.319-9.996 2.018-2.596 4.248-3.788 6.29-3.351l19.776 5.77-.236.802-19.741-5.77c-1.688-.354-3.635.732-5.44 3.056-2.008 2.916-3.42 6.2-4.155 9.662-.735 3.463-.78 7.037-.129 10.517.708 2.855 2.03 4.637 3.753 5.003l19.777 5.77-.295.826z"/>
    <path fill="#fff" d="M44.253 43.719c-.526-.005-1.05-.053-1.57-.142-3.657-.673-17.534-3.847-17.7-3.882l.19-.803c.129 0 13.994 3.198 17.629 3.87 3.965.72 4.802-1.604 4.838-1.698l.779.247s-.791 2.408-4.166 2.408z"/>
    <path fill="#231F20" d="M35.733 23.895s-.92-1.37-6.195-3.54C24.016 18.125 7.118 12.838 7 12.779L7.248 12c.165 0 17.04 5.345 22.597 7.587 5.558 2.242 6.514 3.682 6.596 3.835l-.708.473zM26.01 51.129c-.75-.006-1.498-.057-2.242-.153-2.69-.366-16.143-3.116-16.72-3.234l.164-.814c.142 0 14.007 2.868 16.662 3.222 1.379.232 2.787.232 4.166 0l.2.802c-.734.145-1.482.205-2.23.177zM7.296 39.184l-.177.808 19.295 4.231.177-.807-19.295-4.231zM26.329 40.887L7.035 36.45l.19-.803 19.292 4.437-.188.803z"/>
    <path fill="#fff" d="M36.724 40.355c.952 0 1.723-.77 1.723-1.722s-.771-1.723-1.723-1.723c-.951 0-1.722.771-1.722 1.723 0 .951.771 1.722 1.722 1.722z"/>
    <path fill="#231F20" d="M33.763 20.814s-3.93 1.853-4.048 5.9c-.13 4.98 6.337 9.287 6.738 9.287.401 0 9.558-6.867 9.558-6.867h11.246l-23.494-8.32z"/>
    <path fill="#fff" d="M49.386 40.733c-14.16-4.72-20.26-9.44-19.942-15.34.02-.764.22-1.512.583-2.184.363-.673.878-1.25 1.505-1.686 1.18-.767 3.34-1.405 7.08-.071l-.283.778c-2.702-.967-4.897-.979-6.336 0-.522.363-.95.844-1.25 1.404-.3.56-.461 1.183-.473 1.818-.283 5.404 5.9 10.03 19.376 14.526l-.26.755zM27.532 52.97l-.743-.354c4.189-8.933 19.954-6.596 20.627-6.49l-.118.814c-.166-.023-15.836-2.336-19.766 6.03z"/>
</svg>
