<svg xmlns="http://www.w3.org/2000/svg" width="70" height="70" fill="none" viewBox="0 0 70 70">
    <path fill="#231F20" d="M34.886 62c-5.973 0-9.716-1.66-11.809-3.045-1.273-.785-2.357-1.842-3.171-3.097v-.159c3.171-13.806 1.628-21.957 1.617-22.042.222-7.4-2.41-16.84-2.442-16.914l.412-.116c0 .105 2.675 9.651 2.442 17.02 0 0 1.586 8.235-1.596 22.084.338.56 3.933 5.878 14.536 5.878 5.857 0 9.515-1.618 11.555-2.97 1.198-.75 2.227-1.74 3.023-2.908-3.171-13.849-1.617-22.053-1.607-22.137-.232-7.316 2.422-16.915 2.453-16.915l.402.117c0 .095-2.664 9.588-2.432 16.914 0 .127-1.575 8.278 1.607 22.084v.127c-.803 1.284-1.887 2.368-3.171 3.172C44.569 60.34 40.838 62 34.885 62z"/>
    <path fill="#000" d="M18.669 39.525L10 34.165l.095-.18c.063-.106 6.163-11.005 7.918-15.55.243-.693.6-1.34 1.057-1.914 1.343-1.438 7.517-3.447 8.458-3.743L28.5 9.28h.064C28.638 9.28 30.435 8 35.065 8v.423c-4.017 0-5.856.962-6.205 1.163l-.994 3.562h-.106c-.074 0-6.776 2.115-8.298 3.574.327 1.3 2.95 11.903 2.41 16.914v.074l-3.203 5.815zm-8.109-5.508l7.96 4.926 2.993-5.412c.475-4.61-1.819-14.314-2.337-16.408-.309.461-.568.954-.772 1.47-1.638 4.25-7.04 13.997-7.844 15.424z"/>
    <path fill="#000" d="M51.05 39.525L47.878 33.7l.36-.201 3.023 5.444 7.95-4.926c-.793-1.427-6.195-11.174-7.844-15.424-.249-.651-.606-1.255-1.057-1.787-1.343-1.438-8.31-3.637-8.384-3.658h-.105l-.994-3.562c-.349-.201-2.178-1.163-6.206-1.163V8c4.63 0 6.428 1.226 6.512 1.28h.053l.983 3.498c.93.296 7.105 2.305 8.458 3.743.475.57.85 1.217 1.11 1.913 1.755 4.546 7.855 15.445 7.918 15.551l.095.18-.169.105-8.531 5.255z"/>
    <path fill="#231F20" d="M34.875 16.785c-1.216 0-2.4-.55-2.4-1.057h.423c.56.445 1.256.688 1.972.688s1.41-.243 1.971-.688h.423c.042.507-1.184 1.057-2.389 1.057z"/>
    <path fill="#231F20" d="M34.24 16.49h-.422v45.373h.423V16.49zM34.875 15.781c.17 0 .307-.137.307-.306 0-.17-.138-.307-.307-.307-.17 0-.306.137-.306.307 0 .169.137.306.306.306zM34.875 22.124c.17 0 .307-.137.307-.306 0-.17-.138-.307-.307-.307-.17 0-.306.137-.306.306 0 .17.137.307.306.307zM34.875 28.467c.17 0 .307-.137.307-.307 0-.17-.138-.306-.307-.306-.17 0-.306.137-.306.306 0 .17.137.307.306.307zM34.875 34.81c.17 0 .307-.137.307-.307 0-.17-.138-.306-.307-.306-.17 0-.306.137-.306.306 0 .17.137.307.306.307zM34.875 41.153c.17 0 .307-.137.307-.307 0-.169-.138-.306-.307-.306-.17 0-.306.137-.306.306 0 .17.137.307.306.307zM34.875 47.496c.17 0 .307-.137.307-.306 0-.17-.138-.307-.307-.307-.17 0-.306.137-.306.306 0 .17.137.307.306.307z"/>
    <path fill="#fff" fill-rule="evenodd" d="M27.729 12.948s2.801 5.106 4.228 6.343c.593-1.822 1.399-3.568 2.4-5.202" clip-rule="evenodd"/>
    <path fill="#231F20" d="M32.02 19.512c-.044.017-.092.017-.137 0-1.47-1.258-4.228-6.205-4.302-6.417-.027-.049-.033-.106-.017-.16.016-.053.052-.098.101-.125.05-.024.107-.028.16-.013.052.016.097.05.126.098 1.14 2.14 2.47 4.175 3.975 6.078.573-1.74 1.354-3.404 2.325-4.958.04-.039.093-.06.148-.06.056 0 .109.021.148.06.02.019.037.042.048.067.012.026.017.053.017.081 0 .028-.005.056-.017.081-.01.026-.027.048-.048.067-.983 1.618-1.781 3.341-2.378 5.138-.011.032-.03.06-.053.085-.024.024-.053.042-.085.053l-.01-.075z"/>
    <path fill="#fff" fill-rule="evenodd" d="M42.01 12.948s-2.79 5.106-4.228 6.343c-.598-1.822-1.407-3.567-2.41-5.202" clip-rule="evenodd"/>
    <path fill="#231F20" d="M37.761 19.513c-.034-.01-.066-.026-.091-.05-.026-.024-.046-.054-.057-.088-.592-1.799-1.39-3.523-2.379-5.138-.036-.04-.056-.093-.056-.148 0-.054.02-.107.056-.148.04-.038.093-.06.148-.06.056 0 .109.022.148.06.975 1.554 1.76 3.218 2.337 4.958 1.5-1.905 2.83-3.94 3.975-6.078.028-.047.073-.082.126-.098.053-.015.11-.01.16.013.046.029.08.075.094.128.014.053.006.11-.02.158-.106.211-2.823 5.158-4.293 6.417-.038.042-.09.069-.148.074z"/>
    <path fill="#231F20" d="M34.875 14.417c-.184-.02-.365-.062-.54-.127-6.342-2.114-5.835-4.82-5.803-4.926l.402.095s-.413 2.41 5.54 4.44c.13.047.264.083.401.106.136-.026.27-.061.402-.106 6.004-2.04 5.54-4.419 5.529-4.44l.412-.095c0 .105.55 2.77-5.804 4.926-.174.063-.355.106-.539.127zM34.875 53.839c.17 0 .307-.138.307-.307 0-.17-.138-.306-.307-.306-.17 0-.306.137-.306.306 0 .17.137.307.306.307z"/>
    <path fill="#000" fill-rule="evenodd" d="M19.134 16.849c1.703 5.519 2.555 11.265 2.526 17.041l-3.171 5.36-8.183-5.106 7.475-14.367s.698-2.484 1.353-2.928zM50.553 16.849c-1.703 5.519-2.555 11.265-2.527 17.041l3.172 5.36 8.193-5.106-7.485-14.367s-.698-2.484-1.353-2.928z" clip-rule="evenodd"/>
</svg>
