<svg xmlns="http://www.w3.org/2000/svg" width="70" height="70" fill="none" viewBox="0 0 70 70">
    <path fill="#231F20" d="M36.091 23.32c-.884-.328-1.844-.391-2.764-.182-.92.21-1.758.683-2.412 1.362-2.43 2.358-5.59 6.391-6.592 15 0 0-1.085 9.693 3.962 12.653l21.804 6.12c-.776-.387-1.459-.936-2.004-1.61-.545-.672-.94-1.455-1.157-2.294-1.467-6.003-.805-12.33 1.875-17.9 0 0 2.017-6.191 7.406-7.335L36.09 23.321z"/>
    <path fill="#231F20" d="M51.563 58.909c-.282-.002-.563-.033-.838-.094-4.174-.885-6.037-8.125-4.268-16.51 1.78-8.36 6.438-14.15 10.612-13.336 4.175.813 6.038 8.124 4.258 16.509-1.675 7.806-5.838 13.431-9.764 13.431zM47.27 42.495c-1.65 7.782 0 14.74 3.62 15.518 3.62.778 7.96-4.93 9.623-12.7 1.663-7.771 0-14.74-3.632-15.519-3.632-.778-7.96 4.93-9.61 12.7z"/>
    <path fill="#231F20" d="M50.69 58.803l-21.945-6.238c-4.14-.873-6.003-8.125-4.234-16.51 1.77-8.383 6.439-14.15 10.613-13.336l21.97 6.238-.225.802-21.945-6.238c-3.644-.755-7.936 4.929-9.587 12.712-1.651 7.783 0 14.728 3.62 15.507l21.969 6.238-.236.825z"/>
    <path fill="#fff" d="M44.24 43.65c-.508-.014-1.013-.073-1.51-.176-3.643-.673-18.867-4.08-18.985-4.116l.189-.802c.153 0 15.33 3.432 18.95 4.104 3.962.731 4.799-1.604 4.823-1.698l.79.247s-.885 2.441-4.257 2.441z"/>
    <path fill="#231F20" d="M33.473 23.19s-.33-1.096-5.247-3.077C22.696 17.884 7.189 12.837 7 12.778L7.26 12c.153 0 15.695 5.106 21.225 7.335 5.307 2.146 5.802 3.408 5.767 3.856l-.826-.071h.413l-.366.07zM24.04 50.772c-.533-.005-1.065-.044-1.592-.118-2.689-.353-14.858-2.877-15.33-2.983l.165-.802c.13 0 12.665 2.618 15.33 2.972 2.358.318 3.113-.177 3.113-.189l.53.637c-.66.413-1.444.584-2.216.483zM7.222 38.89l-.177.806 17.067 3.756.178-.806L7.222 38.89zM7.234 35.548l-.187.804 17.069 3.966.187-.805-17.069-3.965z"/>
    <path fill="#fff" d="M36.362 38.627c.951 0 1.722-.771 1.722-1.722s-.77-1.722-1.722-1.722c-.95 0-1.721.771-1.721 1.722 0 .95.77 1.721 1.721 1.721zM34.947 47.47c.951 0 1.722-.77 1.722-1.72 0-.952-.77-1.723-1.722-1.723-.95 0-1.721.771-1.721 1.722 0 .95.77 1.722 1.721 1.722z"/>
</svg>
