<svg xmlns="http://www.w3.org/2000/svg" width="70" height="70" fill="none" viewBox="0 0 70 70">
    <path fill="#000" d="M58.619 10.057h-.502c.175.244.366.477.57.697-.085-.093-.138-.212-.15-.337-.013-.126.016-.252.082-.36zM59.669 10.057c.046.07.08.147.103.229v-.229h-.103zM59.566 10.8c-.109.108-.257.17-.41.17-.075.003-.148-.01-.217-.038-.069-.027-.131-.069-.183-.122.297.293.623.557.97.788v-1.141c-.01.13-.067.251-.16.342z"/>
    <path fill="#000" d="M58.619 10.057c-.066.108-.095.234-.082.36.012.125.065.244.15.337.052.052.114.094.183.121.069.028.143.04.217.038.154 0 .302-.062.41-.171.087-.082.143-.19.16-.308v-.206c-.022-.08-.056-.158-.102-.228l-.936.057zM55.64 12.99c.11-.109.26-.17.416-.17.156 0 .305.061.416.17-.744-.882-1.337-1.88-1.757-2.956h-1.279c.504 1.366 1.238 2.636 2.169 3.756-.095-.113-.144-.258-.138-.406.007-.148.068-.288.172-.393zM56.507 13.025c.11.111.17.26.17.417 0 .156-.06.305-.17.416-.11.11-.257.171-.411.172-.074.002-.148-.01-.217-.038-.069-.028-.13-.07-.183-.122 1.187 1.028 2.553 1.83 4.03 2.363v-1.29c-1.183-.447-2.277-1.1-3.23-1.93l.01.012z"/>
    <path fill="#000" d="M55.64 12.99c-.107.111-.166.259-.166.412 0 .153.06.3.165.41.052.054.114.095.183.123.069.027.143.04.217.038.154 0 .302-.062.41-.172.11-.11.171-.26.171-.416 0-.156-.06-.306-.17-.417-.113-.1-.26-.153-.41-.148-.15.004-.294.065-.4.17zM52.569 16.872c-.089-.115-.131-.259-.12-.404.01-.144.074-.28.178-.381.104-.101.241-.16.386-.168.145-.006.287.04.4.131-1.083-1.43-1.927-3.026-2.5-4.726-.182-.434-.354-.867-.536-1.29h-1.29c.25.56.49 1.142.73 1.735.625 1.844 1.555 3.569 2.752 5.103zM53.436 16.073c.11.111.17.26.17.417 0 .156-.06.305-.17.416-.052.058-.115.104-.186.136-.07.031-.147.047-.225.047-.075 0-.148-.016-.217-.045-.069-.03-.13-.072-.182-.126 1.592 1.294 3.412 2.28 5.365 2.91.593.24 1.141.469 1.724.709v-1.268l-1.29-.525c-1.81-.584-3.5-1.489-4.989-2.67z"/>
    <path fill="#000" d="M52.58 16.05c-.106.11-.165.258-.165.411 0 .153.059.3.165.411.052.054.114.097.182.126.069.03.143.045.218.045.077 0 .154-.015.225-.047.07-.031.134-.078.185-.135.11-.111.171-.261.171-.417 0-.156-.061-.306-.17-.417-.113-.1-.26-.153-.41-.148-.15.004-.294.065-.401.171zM46.78 14.852c.618 1.831 1.54 3.545 2.73 5.068-.054-.053-.097-.116-.126-.186-.029-.07-.044-.144-.044-.22 0-.075.015-.15.044-.219.03-.07.072-.132.125-.185.111-.11.26-.171.417-.171.156 0 .305.061.416.17-1.087-1.43-1.932-3.031-2.5-4.737-.56-1.515-1.276-2.969-2.134-4.338h-1.53c1.13 1.45 2.01 3.078 2.603 4.818zM50.377 19.132c.057.054.102.118.133.19.031.072.047.149.047.227 0 .078-.016.155-.047.227-.03.072-.076.136-.133.19-.11.109-.257.17-.411.171-.076.002-.151-.011-.222-.039-.07-.027-.135-.068-.19-.12 1.6 1.291 3.422 2.278 5.377 2.91 1.608.492 3.115 1.265 4.453 2.283.118.114.229.236.33.366v-1.644c-1.349-.906-2.811-1.632-4.349-2.158-1.803-.566-3.492-1.447-4.988-2.603z"/>
    <path fill="#000" d="M49.52 19.11c-.053.053-.095.116-.124.185-.03.07-.044.144-.044.22 0 .075.015.15.044.22.029.069.071.132.125.185.054.052.118.094.189.121.07.028.146.04.221.039.155 0 .303-.062.411-.171.058-.054.103-.118.134-.19.031-.072.047-.149.047-.227 0-.078-.016-.155-.047-.227-.031-.072-.076-.136-.134-.19-.114-.101-.264-.154-.417-.148-.153.006-.298.072-.404.183zM41.21 13.22c1.096 1.431 1.945 3.036 2.511 4.748.62 1.834 1.542 3.55 2.729 5.08-.088-.115-.13-.259-.12-.404.01-.144.074-.28.178-.381.104-.102.241-.161.386-.168.145-.007.288.04.4.131-1.085-1.432-1.93-3.033-2.5-4.737-.62-1.857-1.558-3.591-2.773-5.126-1.197-1.007-2.572-1.781-4.053-2.283h-3.105l1.86.765c1.625.52 3.144 1.324 4.487 2.374z"/>
    <path fill="#000" d="M52.317 24.863c-1.813-.583-3.507-1.488-5-2.671.11.11.171.26.171.416 0 .156-.061.306-.17.417-.11.11-.257.17-.412.171-.074.003-.147-.01-.216-.038-.069-.027-.131-.069-.183-.122 1.596 1.29 3.414 2.277 5.365 2.911 1.61.512 3.117 1.305 4.452 2.34 1.1 1.427 1.953 3.029 2.523 4.738.274.685.56 1.381.868 2.043v-3.036c-.421-1.78-1.342-3.4-2.655-4.673-1.313-1.273-2.963-2.143-4.754-2.508l.011.012z"/>
    <path fill="#000" d="M46.461 22.17c-.106.11-.165.257-.165.41 0 .153.06.3.165.411.052.053.114.094.183.122.069.027.143.04.217.038.154 0 .302-.062.41-.171.11-.111.172-.261.172-.417 0-.156-.062-.306-.171-.417-.113-.1-.26-.153-.41-.148-.15.004-.294.065-.4.171zM28.276 10.103h.069-.776c.204.304.433.59.684.856-.057-.056-.103-.124-.133-.198-.03-.075-.045-.155-.043-.235.002-.08.021-.16.055-.233.035-.072.084-.137.144-.19zM29.144 10.936c-.113.11-.265.171-.423.171-.148-.001-.29-.058-.4-.16 1.597 1.287 3.416 2.27 5.366 2.9 1.61.495 3.12 1.267 4.464 2.283 1.096 1.432 1.944 3.037 2.511 4.75.617 1.834 1.54 3.551 2.728 5.079-.088-.116-.13-.259-.12-.404.011-.144.074-.28.178-.381.104-.102.242-.161.387-.168.145-.007.287.04.4.131-1.086-1.424-1.93-3.017-2.5-4.715-.617-1.86-1.556-3.6-2.774-5.137-1.442-1.16-3.087-2.042-4.852-2.602-1.816-.584-3.513-1.49-5.01-2.671.071.052.13.12.173.197.042.079.066.165.07.254.005.089-.01.177-.045.26-.034.081-.087.154-.153.213z"/>
    <path fill="#000" d="M29.041 10.057h-.696-.069c-.105.109-.164.254-.164.405 0 .152.059.297.164.406.109.1.251.158.4.16.158 0 .309-.062.422-.172.11-.11.17-.26.17-.416 0-.156-.06-.306-.17-.417l-.057.034zM44.27 26.096c-.052.058-.116.104-.187.135-.07.032-.147.048-.224.048-.149-.002-.291-.059-.4-.16 1.596 1.286 3.415 2.268 5.365 2.9 1.608.491 3.115 1.264 4.452 2.283 1.102 1.425 1.955 3.027 2.523 4.737.614 1.834 1.532 3.551 2.717 5.08-.105-.109-.164-.254-.164-.405 0-.152.059-.297.164-.406.053-.057.118-.102.19-.133.071-.031.148-.047.227-.047.078 0 .155.016.227.047.071.03.136.076.19.133-1.086-1.428-1.93-3.025-2.5-4.726-.613-1.86-1.553-3.595-2.775-5.125-1.44-1.165-3.085-2.048-4.851-2.603-1.817-.582-3.511-1.491-5-2.683.072.052.131.12.173.198.043.078.067.165.071.254.005.088-.01.177-.045.259-.035.082-.087.155-.154.214z"/>
    <path fill="#000" d="M43.402 25.228c-.106.11-.165.258-.165.411 0 .153.059.3.165.411.108.101.25.159.4.16.077 0 .154-.016.224-.047.071-.032.135-.078.186-.136.11-.11.171-.26.171-.416 0-.156-.061-.306-.17-.417-.115-.098-.262-.15-.413-.143-.15.006-.293.07-.398.177zM59.406 40.4c.11.11.171.26.171.416 0 .156-.061.306-.17.417-.114.11-.265.171-.423.171-.148-.003-.29-.06-.4-.16.352.333.734.631 1.142.89v-1.46c-.122-.09-.236-.19-.343-.297l.023.023z"/>
    <path fill="#000" d="M58.527 40.365c-.105.109-.164.254-.164.406 0 .15.059.296.164.405.11.1.252.156.4.16.158 0 .31-.062.422-.172.11-.11.171-.26.171-.416 0-.156-.061-.306-.17-.417-.056-.053-.122-.094-.194-.121-.072-.028-.148-.04-.225-.037-.077.003-.152.022-.221.055-.07.033-.132.08-.183.137zM25.217 13.22c.053-.058.118-.103.19-.134.071-.031.148-.047.227-.047.078 0 .155.016.227.047.071.03.136.076.19.133-.775-.93-1.388-1.984-1.816-3.116h-1.29c.532 1.426 1.304 2.75 2.283 3.915-.103-.106-.162-.248-.164-.397-.002-.149.052-.292.153-.402z"/>
    <path fill="#000" d="M26.084 14.03c-.113.11-.264.17-.422.17-.148-.003-.29-.06-.4-.16 1.597 1.287 3.415 2.27 5.366 2.9 1.61.495 3.12 1.268 4.463 2.284 1.096 1.431 1.945 3.037 2.512 4.748.617 1.832 1.54 3.545 2.728 5.069-.053-.053-.096-.116-.125-.186-.029-.07-.044-.144-.044-.22 0-.075.015-.15.044-.219.03-.07.072-.133.125-.186.111-.109.26-.17.417-.17.156 0 .305.061.416.17-1.087-1.43-1.932-3.031-2.5-4.737-.62-1.857-1.558-3.591-2.773-5.125-1.443-1.16-3.088-2.043-4.852-2.603-1.816-.586-3.513-1.49-5.012-2.671.075.05.137.118.182.197.045.078.07.166.076.257.006.09-.01.18-.044.264-.035.083-.089.158-.157.218z"/>
    <path fill="#000" d="M25.217 13.22c-.105.108-.164.253-.164.404 0 .152.059.297.164.406.11.1.252.156.4.16.157 0 .309-.062.422-.172.11-.11.17-.26.17-.416 0-.156-.06-.306-.17-.417-.056-.053-.121-.095-.193-.122-.072-.027-.149-.04-.225-.036-.077.003-.152.022-.222.055s-.131.08-.182.137zM41.21 29.201c-.052.056-.116.1-.187.13-.07.03-.147.044-.224.041-.076.002-.151-.011-.222-.038-.07-.028-.134-.069-.189-.122 1.599 1.293 3.421 2.28 5.377 2.911 1.611.51 3.119 1.302 4.452 2.34 1.098 1.428 1.95 3.03 2.523 4.738.612 1.837 1.535 3.555 2.728 5.08-.053-.056-.095-.121-.123-.193-.028-.071-.041-.148-.04-.224.002-.077.019-.153.05-.223.03-.07.075-.134.13-.188.056-.053.121-.095.193-.123.071-.028.148-.041.224-.04.077.002.153.019.224.05.07.03.134.075.187.13-1.086-1.428-1.93-3.024-2.5-4.726-.613-1.86-1.552-3.595-2.774-5.125-1.44-1.165-3.086-2.047-4.852-2.603-1.811-.588-3.504-1.492-5-2.671.062.052.113.116.148.19.035.072.055.152.057.233.002.08-.013.161-.044.236-.032.075-.079.142-.138.197z"/>
    <path fill="#000" d="M40.342 28.288c-.053.053-.096.116-.124.186-.03.07-.044.144-.044.219 0 .075.014.15.044.22.028.07.07.132.124.185.055.053.12.094.19.121.07.028.146.041.221.039.077.003.154-.011.224-.04.071-.03.135-.075.187-.131.057-.053.103-.118.134-.19.03-.071.047-.149.047-.227 0-.078-.016-.155-.047-.227-.031-.072-.077-.136-.134-.19-.114-.101-.264-.154-.418-.148-.153.006-.298.072-.404.183zM56.347 43.459c.11.111.17.26.17.416 0 .157-.06.306-.17.417-.055.056-.121.1-.194.129-.072.03-.15.044-.228.043-.148-.004-.29-.06-.4-.16 1.24 1.058 2.664 1.879 4.201 2.42v-1.279c-1.252-.462-2.411-1.142-3.425-2.009l.046.023z"/>
    <path fill="#000" d="M55.48 43.425c-.054.053-.096.116-.125.185-.03.07-.044.145-.044.22 0 .075.015.15.044.22.029.069.07.132.124.185.11.1.252.156.4.16.078.001.156-.013.229-.043.072-.03.138-.073.193-.128.11-.111.171-.261.171-.417 0-.156-.061-.306-.17-.417-.056-.053-.122-.094-.194-.121-.072-.027-.148-.04-.225-.036-.077.003-.152.021-.221.054-.07.033-.132.08-.183.138zM22.135 17.032c-.106-.109-.164-.254-.164-.405 0-.152.058-.297.164-.405.053-.058.118-.103.19-.134.071-.031.148-.047.226-.047.079 0 .156.016.228.047.071.031.136.076.19.133-1.087-1.428-1.931-3.024-2.5-4.726-.195-.49-.4-.97-.606-1.45h-1.29c.274.606.537 1.256.81 1.896.623 1.84 1.554 3.561 2.752 5.091z"/>
    <path fill="#000" d="M23.025 17.089c-.113.11-.264.171-.422.171-.148-.003-.29-.06-.4-.16 1.597 1.286 3.415 2.27 5.366 2.9 1.61.492 3.121 1.265 4.463 2.283 1.092 1.435 1.94 3.039 2.511 4.749.62 1.834 1.542 3.55 2.729 5.08-.088-.116-.13-.26-.12-.404.01-.145.074-.28.178-.381.104-.102.241-.161.386-.168.145-.007.288.04.4.13-1.085-1.432-1.93-3.032-2.5-4.737-.62-1.856-1.558-3.59-2.774-5.125-1.442-1.16-3.087-2.042-4.851-2.603-1.816-.585-3.513-1.49-5.012-2.671.074.052.136.12.18.2.043.078.068.166.072.257.005.09-.012.18-.047.263-.036.083-.09.157-.159.216z"/>
    <path fill="#000" d="M22.158 16.221c-.106.11-.165.254-.165.406 0 .151.06.296.165.405.11.1.251.156.4.16.157 0 .308-.061.421-.172.11-.11.171-.26.171-.416 0-.156-.061-.306-.17-.417-.056-.053-.122-.094-.194-.121-.071-.027-.148-.04-.225-.037-.076.004-.152.022-.221.055-.07.033-.131.08-.182.137zM38.15 32.215c-.108.109-.256.17-.41.17-.074.003-.148-.01-.217-.037-.069-.028-.131-.07-.183-.122 1.596 1.29 3.414 2.276 5.365 2.911 1.607.494 3.114 1.267 4.453 2.283 1.1 1.427 1.953 3.028 2.522 4.737.613 1.837 1.536 3.555 2.729 5.08-.108-.112-.166-.262-.163-.417.003-.155.068-.303.18-.41.112-.108.262-.166.417-.163.155.003.303.068.41.18-1.085-1.428-1.93-3.025-2.5-4.726-.612-1.86-1.552-3.596-2.774-5.126-1.44-1.164-3.085-2.047-4.851-2.602-1.814-.583-3.508-1.488-5-2.672.068.054.124.123.163.2.039.079.06.164.063.252.002.087-.015.173-.05.253-.035.08-.088.151-.153.209z"/>
    <path fill="#000" d="M37.283 31.347c-.106.11-.165.258-.165.411 0 .153.059.3.165.411.052.053.114.094.183.122.069.027.143.04.217.038.154 0 .302-.062.41-.171.11-.111.171-.261.171-.417 0-.156-.061-.306-.17-.417-.113-.1-.26-.152-.41-.148-.15.004-.294.065-.4.171zM53.265 46.495c.11.111.17.261.17.417 0 .156-.06.306-.17.417-.113.11-.265.171-.422.17-.149-.003-.29-.06-.4-.159 1.596 1.286 3.415 2.269 5.365 2.9.662.262 1.29.525 1.895.787V49.75l-1.45-.594c-1.807-.584-3.496-1.485-4.988-2.66z"/>
    <path fill="#000" d="M52.42 46.484c-.053.053-.096.116-.125.186-.029.07-.044.144-.044.22 0 .075.015.15.044.219.03.07.072.132.125.185.11.1.252.157.4.16.157 0 .309-.06.422-.17.11-.112.17-.262.17-.418 0-.155-.06-.305-.17-.416-.055-.053-.121-.095-.193-.122-.072-.027-.148-.04-.225-.036-.077.003-.152.022-.222.055-.069.033-.131.08-.182.137zM16.358 15.011c.617 1.833 1.535 3.55 2.717 5.08-.105-.108-.164-.254-.164-.405 0-.151.059-.296.164-.405.054-.057.118-.103.19-.134.072-.03.149-.047.227-.047.078 0 .155.016.227.047.072.031.136.077.19.134-1.092-1.43-1.94-3.031-2.512-4.738-.581-1.587-1.348-3.1-2.283-4.509h-1.598c.085.066.165.139.24.217 1.128 1.43 2.008 3.039 2.602 4.76z"/>
    <path fill="#000" d="M19.966 20.148c-.113.11-.265.172-.423.172-.148-.004-.29-.06-.4-.16 1.597 1.286 3.416 2.268 5.366 2.9 1.61.494 3.12 1.267 4.463 2.283 1.096 1.431 1.945 3.037 2.512 4.748.617 1.835 1.54 3.552 2.728 5.08-.088-.115-.13-.259-.12-.404.011-.144.075-.28.178-.381.104-.101.242-.16.387-.168.145-.006.287.04.4.131-1.09-1.421-1.935-3.014-2.5-4.714-.617-1.862-1.556-3.6-2.774-5.137-1.445-1.162-3.094-2.045-4.863-2.603-1.806-.586-3.495-1.487-4.989-2.66.07.053.126.121.166.199.04.077.063.163.066.25.003.087-.013.174-.047.254-.034.08-.085.152-.15.21z"/>
    <path fill="#000" d="M19.098 19.28c-.105.11-.164.255-.164.406 0 .151.059.297.164.405.11.1.252.157.4.16.157 0 .309-.061.422-.171.11-.111.17-.26.17-.417 0-.156-.06-.305-.17-.416-.055-.053-.121-.095-.193-.122-.072-.027-.148-.04-.225-.036-.077.003-.152.022-.222.055-.069.033-.131.08-.182.137zM35.091 35.274c-.052.058-.115.104-.186.136-.07.031-.147.047-.225.047-.148-.002-.29-.059-.4-.16 1.597 1.286 3.416 2.269 5.366 2.9 1.607.491 3.115 1.264 4.452 2.282 1.102 1.426 1.955 3.028 2.523 4.738.613 1.834 1.532 3.551 2.717 5.08-.106-.109-.164-.254-.164-.405 0-.152.058-.297.164-.406.053-.057.118-.102.19-.133.071-.031.148-.047.226-.047.079 0 .156.016.228.047.071.03.136.076.19.133-1.086-1.428-1.931-3.024-2.5-4.726-.613-1.86-1.553-3.595-2.775-5.125-1.44-1.165-3.085-2.048-4.851-2.603-1.817-.582-3.511-1.491-5-2.683.072.053.13.12.173.198.042.078.067.165.071.254.005.088-.011.177-.045.259-.035.082-.087.155-.154.214z"/>
    <path fill="#000" d="M34.224 34.407c-.106.11-.165.257-.165.41 0 .154.059.3.165.411.108.102.25.159.4.16.077 0 .154-.015.224-.047.071-.032.135-.078.186-.135.11-.112.171-.261.171-.417 0-.156-.061-.306-.17-.417-.115-.098-.262-.15-.413-.143-.15.007-.293.07-.398.178zM50.205 49.555c.11.11.171.26.171.416 0 .156-.061.306-.17.417-.114.11-.265.172-.423.171-.148-.003-.29-.06-.4-.16 1.597 1.286 3.415 2.27 5.366 2.9 1.61.495 3.12 1.267 4.463 2.283.18.188.345.39.491.605v-1.746c-1.405-.976-2.942-1.745-4.566-2.284-1.783-.573-3.452-1.453-4.932-2.602z"/>
    <path fill="#000" d="M49.395 49.544c-.105.108-.164.253-.164.405 0 .151.059.296.164.405.11.1.251.156.4.16.157 0 .309-.062.422-.171.11-.112.17-.261.17-.417 0-.156-.06-.306-.17-.417-.056-.053-.121-.094-.193-.121-.072-.027-.149-.04-.225-.037-.077.004-.152.022-.222.055s-.131.08-.182.138zM13.3 18.07c.613 1.835 1.531 3.552 2.716 5.08-.105-.108-.164-.253-.164-.405 0-.15.059-.296.164-.405.053-.057.118-.102.19-.133.071-.032.149-.047.227-.047.078 0 .155.015.227.047.072.03.136.076.19.133-1.086-1.428-1.93-3.025-2.5-4.726-.616-1.862-1.555-3.601-2.775-5.137-.467-.449-.993-.833-1.563-1.141v1.38c.262.175.506.373.73.595 1.116 1.43 1.981 3.04 2.557 4.76zM16.907 23.208c-.114.11-.265.171-.423.171-.148-.004-.29-.06-.4-.16 1.597 1.286 3.415 2.269 5.366 2.9 1.614.512 3.125 1.304 4.463 2.34 1.096 1.432 1.945 3.037 2.512 4.749.608 1.848 1.522 3.58 2.705 5.125-.088-.115-.13-.259-.12-.403.011-.145.074-.28.178-.382.104-.101.242-.16.387-.167.145-.007.287.04.4.13-1.086-1.432-1.93-3.032-2.5-4.737-.62-1.857-1.559-3.591-2.774-5.126-1.443-1.16-3.088-2.042-4.852-2.602-1.816-.586-3.513-1.49-5.011-2.671.119.101.193.246.206.402.013.156-.037.311-.137.43z"/>
    <path fill="#000" d="M16.039 22.352c-.106.108-.165.253-.165.405 0 .151.06.296.165.405.11.1.251.156.4.16.157 0 .309-.061.422-.171.11-.111.17-.261.17-.417 0-.156-.06-.306-.17-.417-.056-.053-.121-.094-.193-.121-.072-.027-.149-.04-.226-.036-.076.003-.152.021-.22.054-.07.033-.132.08-.183.138zM32.032 38.333c-.052.057-.116.101-.187.13-.07.03-.147.044-.224.042-.074.002-.148-.011-.216-.038-.07-.028-.132-.07-.184-.122 1.593 1.294 3.413 2.28 5.366 2.91 1.61.513 3.117 1.305 4.452 2.34 1.098 1.429 1.95 3.03 2.523 4.738.612 1.837 1.535 3.555 2.728 5.08-.108-.112-.166-.262-.163-.417.003-.155.068-.303.18-.41.112-.108.262-.166.417-.163.156.003.303.068.41.18-1.085-1.429-1.93-3.025-2.5-4.726-.612-1.86-1.551-3.596-2.773-5.126-1.44-1.164-3.086-2.047-4.852-2.603-1.813-.582-3.507-1.487-5-2.67.062.051.113.116.148.189.035.072.055.152.057.233.002.081-.013.162-.044.236-.032.075-.079.142-.138.197z"/>
    <path fill="#000" d="M31.13 37.466c-.106.11-.165.257-.165.41 0 .154.06.301.165.412.052.052.114.094.183.121.069.028.143.04.217.038.076.003.153-.011.224-.04.07-.03.134-.074.187-.13.057-.054.102-.119.133-.19.031-.072.047-.15.047-.228 0-.078-.016-.155-.047-.227-.03-.071-.076-.136-.133-.19-.113-.099-.26-.152-.41-.148-.15.005-.294.066-.4.172zM52.157 55.285c-1.815-.585-3.512-1.49-5.01-2.67.109.11.17.26.17.416 0 .156-.061.306-.17.417-.056.055-.122.099-.195.128-.072.03-.15.044-.228.043-.148-.004-.29-.06-.4-.16 1.597 1.286 3.415 2.269 5.366 2.9 1.613.511 3.124 1.304 4.463 2.34.285.31.541.647.765 1.004h1.358c-.348-.666-.782-1.283-1.29-1.838-1.437-1.149-3.074-2.023-4.828-2.58z"/>
    <path fill="#000" d="M46.301 52.603c-.053.053-.096.116-.125.185-.029.07-.044.145-.044.22 0 .075.015.15.044.22.03.069.072.132.125.185.11.1.252.156.4.16.078.001.156-.013.228-.043.073-.029.139-.073.194-.128.11-.111.171-.26.171-.417 0-.156-.061-.306-.17-.417-.056-.053-.122-.094-.194-.121-.072-.027-.148-.04-.225-.036-.077.003-.152.021-.221.054-.07.033-.132.08-.183.138zM12.968 26.21c-.107-.112-.166-.262-.163-.417.004-.155.068-.303.18-.41.112-.108.262-.167.418-.163.155.003.302.068.41.18-1.084-1.43-1.928-3.026-2.5-4.726-.411-.994-.822-2.01-1.279-2.911v2.9c0 .148.126.307.194.456.613 1.842 1.54 3.565 2.74 5.091z"/>
    <path fill="#000" d="M13.847 26.267c-.113.11-.265.171-.422.171-.146 0-.285-.058-.388-.16 1.592 1.286 3.406 2.27 5.353 2.9 1.611.492 3.122 1.265 4.464 2.283 1.092 1.435 1.94 3.04 2.511 4.749.62 1.834 1.542 3.55 2.729 5.08-.088-.115-.13-.26-.12-.404.01-.145.074-.28.178-.382.104-.1.241-.16.386-.167.145-.007.287.04.4.13-1.085-1.432-1.93-3.032-2.5-4.737-.62-1.856-1.558-3.59-2.774-5.125-1.442-1.16-3.087-2.042-4.851-2.603-1.817-.584-3.514-1.489-5.012-2.671.074.052.136.12.18.2.043.078.068.167.072.257.005.09-.012.18-.047.263-.036.083-.09.157-.159.216z"/>
    <path fill="#000" d="M12.98 25.4c-.054.053-.097.116-.125.185-.03.07-.044.144-.044.22 0 .075.015.15.044.22.028.069.07.132.124.185.104.102.243.159.389.16.157 0 .309-.062.422-.172.11-.11.17-.26.17-.416 0-.156-.06-.306-.17-.417-.055-.051-.12-.09-.191-.117-.07-.026-.146-.038-.222-.035-.075.003-.149.022-.217.053-.069.033-.13.078-.18.133zM28.973 41.393c-.11.109-.257.17-.411.17-.074.003-.148-.01-.217-.037-.069-.028-.13-.07-.183-.122 1.596 1.29 3.414 2.276 5.365 2.911 1.607.494 3.114 1.267 4.452 2.283 1.102 1.426 1.955 3.028 2.523 4.738.61 1.837 1.533 3.556 2.728 5.08-.053-.056-.094-.121-.122-.193-.028-.072-.042-.148-.04-.225.001-.077.018-.153.049-.223.03-.07.075-.134.13-.187.056-.053.121-.095.193-.123.072-.028.148-.042.225-.04.077.002.153.018.223.05.07.03.134.075.187.13-1.083-1.43-1.927-3.026-2.5-4.726-.612-1.86-1.552-3.596-2.774-5.126-1.44-1.164-3.085-2.047-4.851-2.602-1.814-.583-3.508-1.488-5-2.672.068.054.124.123.163.2.04.079.06.164.063.252.002.087-.015.173-.05.253-.036.08-.088.151-.153.209z"/>
    <path fill="#000" d="M28.105 40.525c-.106.11-.165.258-.165.411 0 .153.059.3.165.411.052.053.114.094.183.122.069.027.142.04.216.038.155 0 .303-.062.412-.171.109-.111.17-.261.17-.417 0-.156-.061-.306-.17-.417-.113-.1-.26-.153-.41-.148-.15.004-.294.065-.401.171zM44.087 55.673c.11.111.17.261.17.417 0 .156-.06.306-.17.417-.113.11-.265.171-.423.171-.145 0-.284-.058-.388-.16 1.592 1.286 3.407 2.269 5.354 2.9l.72.285h2.842c-.925-.49-1.998-.925-3.117-1.381-1.807-.58-3.496-1.477-4.988-2.649z"/>
    <path fill="#000" d="M43.242 55.662c-.053.053-.096.116-.125.186-.029.07-.044.144-.044.22 0 .075.015.15.044.219.03.07.072.133.125.185.104.102.243.16.388.16.158 0 .31-.06.422-.17.11-.112.171-.262.171-.418 0-.155-.061-.305-.17-.416-.056-.051-.12-.091-.191-.117-.071-.027-.147-.038-.222-.035-.075.003-.15.021-.218.053s-.13.077-.18.133zM10.753 28.459c-.278-.291-.523-.613-.73-.959v.845c.117-.067.252-.091.385-.07.133.02.255.085.345.184zM19.794 34.578c1.096 1.431 1.945 3.036 2.512 4.748.62 1.834 1.542 3.551 2.728 5.08-.088-.115-.13-.259-.12-.403.011-.145.074-.28.178-.382.104-.101.242-.16.387-.168.145-.006.287.04.4.131-1.083-1.43-1.928-3.026-2.5-4.726-.617-1.86-1.556-3.6-2.774-5.137-1.445-1.162-3.094-2.044-4.863-2.602-1.806-.587-3.495-1.487-4.989-2.66.11.11.171.26.171.416 0 .156-.061.306-.17.417-.114.11-.265.171-.423.171-.115-.004-.227-.044-.32-.114 1.582 1.247 3.371 2.206 5.286 2.831 1.63.526 3.152 1.338 4.497 2.398z"/>
    <path fill="#000" d="M10.046 28.368v1.016c.092.07.204.109.32.114.157 0 .309-.062.422-.172.11-.11.17-.26.17-.416 0-.156-.06-.306-.17-.417-.09-.103-.214-.172-.349-.195-.135-.023-.274.002-.393.07zM25.913 44.452c-.109.11-.257.17-.41.171-.075.003-.148-.01-.217-.038-.069-.027-.131-.069-.183-.122 1.595 1.29 3.414 2.277 5.365 2.911 1.61.512 3.117 1.304 4.452 2.34 1.1 1.427 1.953 3.029 2.523 4.738.616 1.833 1.534 3.55 2.717 5.08-.087-.117-.128-.261-.115-.406.012-.145.077-.28.183-.38.105-.1.244-.157.39-.162.144-.005.286.044.398.137-1.091-1.43-1.94-3.03-2.511-4.737-.613-1.86-1.553-3.596-2.774-5.126-1.44-1.164-3.086-2.047-4.852-2.602-1.814-.583-3.507-1.488-5-2.672.062.053.112.119.147.192.035.073.055.153.059.235.003.081-.01.162-.04.238-.03.076-.074.145-.132.203z"/>
    <path fill="#000" d="M25.046 43.584c-.106.111-.165.258-.165.411 0 .154.059.3.165.412.052.052.114.094.183.121.069.028.142.04.216.038.154 0 .302-.062.411-.17.11-.112.171-.262.171-.418 0-.156-.061-.305-.17-.416-.114-.1-.26-.153-.41-.149-.151.004-.294.066-.401.172zM41.05 58.756c.11.11.171.26.171.416 0 .156-.061.306-.17.417-.074.07-.165.117-.263.137h1.586c-.483-.272-.931-.602-1.335-.982l.011.012zM40.263 59.6l.148.126h.103c-.094-.018-.18-.062-.251-.126z"/>
    <path fill="#000" d="M40.183 58.721c-.106.11-.165.255-.165.406 0 .151.06.296.165.405.07.064.157.107.25.126h.31c.098-.02.189-.068.262-.137.11-.111.17-.261.17-.417 0-.156-.06-.306-.17-.417-.114-.104-.264-.16-.418-.153-.155.007-.3.074-.404.188zM16.735 37.637c1.096 1.432 1.945 3.037 2.512 4.749.626 1.835 1.556 3.552 2.75 5.08-.087-.116-.13-.26-.12-.404.012-.145.075-.28.179-.382.104-.1.241-.16.386-.167.145-.007.288.04.4.13-1.085-1.432-1.93-3.032-2.5-4.737-.62-1.856-1.558-3.59-2.774-5.125-1.442-1.16-3.087-2.042-4.851-2.603-.913-.365-1.838-.73-2.671-1.142v1.302c.719.33 1.484.639 2.283.936 1.595.525 3.086 1.325 4.406 2.363zM32.694 51.94c-1.44-1.164-3.085-2.047-4.852-2.602-1.813-.583-3.507-1.488-5-2.671.058.053.103.117.134.19.031.07.047.148.047.226 0 .078-.016.156-.047.227-.031.072-.076.137-.134.19-.052.056-.115.1-.186.13s-.148.044-.224.041c-.074.003-.148-.01-.217-.038-.069-.027-.131-.069-.183-.122 1.593 1.294 3.412 2.281 5.365 2.911 1.608.492 3.115 1.265 4.452 2.284 1.102 1.425 1.955 3.027 2.523 4.737.308.753.617 1.507.948 2.215h1.301c-.4-.822-.788-1.747-1.142-2.66-.623-1.837-1.566-3.549-2.785-5.057z"/>
    <path fill="#000" d="M21.998 46.644c-.106.11-.166.258-.166.41 0 .154.06.301.166.412.052.053.114.094.183.121.069.028.142.04.216.038.077.003.153-.01.224-.04.071-.03.135-.074.187-.13.057-.054.103-.119.134-.19.03-.072.047-.15.047-.227 0-.078-.016-.156-.047-.227-.031-.072-.077-.137-.134-.19-.113-.1-.26-.153-.41-.149-.15.005-.293.066-.4.172zM16.187 45.445c.617 1.831 1.54 3.545 2.729 5.069-.054-.053-.096-.117-.125-.186-.03-.07-.044-.144-.044-.22 0-.075.015-.15.044-.22.029-.069.071-.132.125-.185.11-.11.26-.17.416-.17.156 0 .306.06.417.17-1.088-1.431-1.933-3.032-2.5-4.737-.62-1.857-1.559-3.591-2.774-5.126-1.323-1.084-2.837-1.912-4.463-2.443v1.279c1.32.443 2.549 1.12 3.63 1.997 1.11 1.437 1.97 3.05 2.545 4.772zM24.783 52.397c-1.811-.587-3.504-1.492-5-2.67.057.053.103.117.134.189.03.071.047.149.047.227 0 .078-.016.155-.047.227-.031.072-.077.136-.134.19-.109.109-.257.17-.41.17-.077.003-.152-.01-.222-.038-.07-.027-.135-.069-.19-.121 1.6 1.29 3.422 2.276 5.377 2.91 1.611.51 3.119 1.302 4.452 2.341.94 1.165 1.673 2.481 2.169 3.893h1.313c-.585-1.718-1.47-3.318-2.614-4.726-1.448-1.163-3.102-2.042-4.875-2.592z"/>
    <path fill="#000" d="M18.927 49.749c-.053.053-.096.116-.125.186-.029.07-.044.144-.044.22 0 .074.015.15.044.219.029.07.072.132.125.185.054.053.119.094.19.122.07.027.145.04.22.038.155 0 .303-.062.412-.171.057-.053.102-.118.133-.19.031-.071.047-.149.047-.227 0-.078-.016-.155-.047-.227-.03-.071-.076-.136-.133-.19-.115-.101-.265-.154-.418-.148-.153.007-.298.072-.404.183zM13.128 48.505c.62 1.833 1.542 3.55 2.728 5.08-.088-.116-.13-.26-.12-.404.011-.145.074-.28.178-.382.104-.101.242-.16.387-.167.145-.007.287.04.4.13-1.083-1.43-1.928-3.025-2.5-4.726-.617-1.86-1.556-3.6-2.774-5.136-.424-.403-.895-.752-1.404-1.04v1.405c.2.144.39.3.57.468 1.107 1.437 1.964 3.05 2.535 4.772zM21.724 55.456c-1.814-.582-3.508-1.487-5-2.67.11.11.17.26.17.416 0 .156-.06.306-.17.417-.11.109-.257.17-.411.17-.074.003-.148-.01-.217-.037-.069-.028-.13-.07-.183-.122 1.596 1.29 3.414 2.276 5.366 2.911 1.606.495 3.113 1.267 4.452 2.283.249.254.47.533.662.833h1.37c-.302-.605-.687-1.166-1.142-1.666-1.458-1.145-3.12-2.005-4.897-2.535z"/>
    <path fill="#000" d="M15.867 52.763c-.106.11-.165.257-.165.41 0 .154.06.3.165.411.052.053.115.095.184.122.068.028.142.04.216.038.154 0 .302-.062.411-.171.11-.111.17-.26.17-.417 0-.156-.06-.305-.17-.416-.113-.1-.26-.153-.41-.149-.15.004-.293.066-.4.172zM12.797 56.598c-.088-.115-.13-.259-.12-.404.01-.144.074-.28.178-.381.104-.102.241-.161.386-.168.145-.007.288.04.4.131-1.085-1.424-1.93-3.017-2.5-4.715-.365-.879-.73-1.758-1.141-2.568v3.014c.637 1.843 1.583 3.565 2.797 5.091zM13.664 55.833c.057.054.103.118.134.19.031.071.047.149.047.227 0 .078-.016.155-.047.227-.031.072-.077.136-.134.19-.052.056-.116.1-.187.13-.07.03-.147.043-.224.04-.147.004-.29-.05-.4-.148 1.597 1.286 3.416 2.269 5.366 2.9l.297.114h2.957c-.857-.422-1.827-.81-2.82-1.21-1.81-.576-3.501-1.477-4.989-2.66z"/>
    <path fill="#000" d="M12.865 55.822c-.106.11-.165.258-.165.41 0 .154.06.301.165.412.11.098.253.151.4.148.077.003.153-.011.224-.04.07-.03.134-.075.187-.131.057-.053.102-.118.133-.19.032-.071.048-.149.048-.227 0-.078-.016-.155-.048-.227-.03-.071-.076-.136-.133-.19-.114-.098-.262-.149-.412-.142-.15.006-.293.07-.399.177zM10.582 58.881c-.206-.22-.393-.456-.56-.708v.537c.1-.026.206-.024.305.007.098.03.187.087.255.164z"/>
    <path fill="#000" d="M10.582 58.881c.106.109.164.254.164.405 0 .152-.058.297-.164.406h1.04c-.387-.234-.747-.51-1.074-.822l.034.011z"/>
    <path fill="#000" d="M10.046 58.733v.993h.593c.106-.109.164-.254.164-.405 0-.151-.058-.297-.164-.405-.07-.086-.163-.15-.269-.182-.106-.032-.218-.033-.324-.001z"/>
</svg>
