<svg xmlns="http://www.w3.org/2000/svg" width="70" height="70" fill="none" viewBox="0 0 70 70">
    <path fill="#000" d="M60 51.912L18.077 10H16.25L60 53.739v-1.827zM60 44.88L25.12 10H23.28L60 46.707v-1.826zM60 38.102L31.898 10H30.06L60 39.929v-1.827zM60 31.06L38.93 10h-1.828L60 32.898v-1.839zM60 24.028L45.972 10h-1.839L60 25.855v-1.827zM60 16.985L53.003 10h-1.827L60 18.823v-1.838zM60 10h-1.792L60 11.78V10zM10 59.989h1.792L10 58.208v1.78zM10 53.003l6.997 6.986h1.826L10 51.165v1.838zM10 45.96l14.028 14.028h1.838L10 44.134v1.826zM10 38.93l21.07 21.059h1.828L10 37.09v1.838zM10 31.887l28.102 28.102h1.838L10 30.059v1.828zM10 24.855L45.145 59.99h1.826L10 23.029v1.826zM10 17.813l42.176 42.175h1.827L10 15.986v1.826zM10 10v.781L59.207 59.99H60v-1.034L11.046 10H10z"/>
</svg>
