<svg xmlns="http://www.w3.org/2000/svg" width="70" height="70" fill="none" viewBox="0 0 70 70">
    <path fill="#000" d="M10.83 21.675l-.557 6.447c-.163 2.178.463 4.341 1.763 6.096 0 0 9.995 10.234 19.843 10.984 0 0 7.96 1.695 17.432-4.332 0 0 7.084-4.674 8.438-6.368 1.296-1.741 1.99-3.857 1.978-6.027-.06-2.305-.273-4.603-.637-6.88 0 0 0 3.832-7.505 9.495 0 0-9.358 6.948-15.67 6.664 0 0-6.822-.284-11.69-3.116 0 0-7.868-4.469-10.063-7.436 0 0-2.968-3.332-3.332-5.527z"/>
    <path fill="#FF4208" d="M11.9 19.73l-.08.057.102-.057h-.023zM58.101 19.73l.102.057c-.039-.008-.074-.028-.102-.057z"/>
    <path fill="#231F20" d="M34.96 38.198c-.189.013-.379.013-.568 0-8.76-1.322-16.691-5.923-22.186-12.873-1.262-1.706-1.82-3.206-1.592-4.332.055-.303.176-.59.355-.84.179-.249.411-.456.68-.604l.114-.069c5.162-2.808 13.85-4.48 23.22-4.48s18.058 1.672 23.232 4.48l.113.069c.268.15.499.358.678.607.179.25.3.535.357.837.228 1.137-.33 2.627-1.592 4.332-5.446 7.013-13.406 11.633-22.197 12.884l-.614-.011zm0-22.584c-9.267 0-17.83 1.649-22.913 4.4l-.091.058c-.19.101-.356.245-.482.42-.126.176-.21.378-.246.592-.193.932.33 2.274 1.478 3.82 5.389 6.814 13.165 11.326 21.754 12.623.336.034.675.034 1.012 0 8.616-1.22 16.42-5.747 21.753-12.623 1.138-1.535 1.66-2.888 1.479-3.82-.04-.212-.127-.412-.252-.587-.126-.175-.288-.32-.476-.425l-.102-.057c-5.05-2.752-13.612-4.4-22.89-4.4h-.024z"/>
    <path fill="#FF4208" d="M11.9 30.897c-.032.013-.059.032-.08.057l.102-.057h-.023zM58.101 30.897l.102.057-.102-.057z"/>
    <path fill="#231F20" d="M14.992 28.02l-.216-.614c6.602-2.034 13.482-3.017 20.389-2.911 6.802-.096 13.578.85 20.093 2.809l-.205.614c-6.448-1.936-13.156-2.872-19.888-2.775-6.834-.106-13.641.865-20.173 2.877z"/>
    <path fill="#231F20" d="M27.182 44.293h-.09l-.82-.296c-4.548-1.774-12.156-6.823-13.85-8.96-1.361-1.507-2.21-3.406-2.422-5.425.044-2.824.238-5.645.58-8.449.002-.043.014-.086.034-.125.02-.038.05-.072.083-.1.035-.026.075-.045.117-.056.043-.01.087-.011.13-.003.043.004.085.017.122.038.038.02.072.049.098.083.027.034.046.073.057.115.011.042.014.085.007.128-.343 2.766-.54 5.548-.591 8.335.213 1.883 1.008 3.652 2.274 5.06 1.638 2.047 9.097 7.017 13.577 8.756.273.103.524.205.774.273.04.013.078.034.11.062.033.027.06.061.079.1.019.038.03.08.033.122.003.043-.003.085-.017.126-.02.06-.059.113-.11.151-.05.039-.111.061-.175.065z"/>
    <path fill="#231F20" d="M35.358 45.68c-2.842-.025-5.661-.513-8.346-1.444-.041-.013-.079-.034-.111-.062-.033-.027-.06-.061-.079-.1-.019-.038-.03-.08-.033-.122-.002-.043.004-.085.018-.126.014-.04.036-.079.065-.111.029-.033.064-.06.103-.079.039-.019.081-.03.125-.032.043-.003.086.003.127.018 5.045 1.867 10.591 1.867 15.636 0l.25-.091c4.356-1.558 12.27-6.823 13.964-8.904 1.267-1.409 2.062-3.178 2.275-5.06-.049-2.787-.243-5.569-.58-8.335-.007-.043-.004-.087.007-.129.01-.041.03-.08.057-.115.026-.034.06-.062.097-.083.038-.02.08-.033.123-.037.042-.009.086-.008.128.003.042.01.08.03.114.057.034.027.061.06.08.1.02.038.03.08.03.124.354 2.803.551 5.624.592 8.449-.217 2.02-1.069 3.92-2.434 5.424-1.774 2.274-9.722 7.494-14.236 9.097l-.24.091c-2.46.975-5.085 1.473-7.732 1.467z"/>
    <path fill="#fff" d="M34.983 42.928c.64 0 1.16-.52 1.16-1.16 0-.64-.52-1.16-1.16-1.16-.64 0-1.16.52-1.16 1.16 0 .64.52 1.16 1.16 1.16zM30.707 45.953c-.082 0-.162-.032-.221-.09-.06-.057-.094-.135-.097-.217v-.137c-.137-2.66-.375-7.118 4.81-8.687.083-.022.171-.012.247.028.076.04.134.107.162.188.013.04.017.082.012.124-.004.042-.017.083-.037.12-.02.037-.047.07-.08.096-.033.026-.07.046-.11.058-4.709 1.432-4.55 5.413-4.356 8.04v.147c.003.042-.003.085-.017.125-.014.04-.036.076-.064.107-.03.031-.064.056-.103.073-.039.016-.08.025-.123.025h-.023z"/>
</svg>
