<svg xmlns="http://www.w3.org/2000/svg" width="70" height="70" fill="none" viewBox="0 0 70 70">
    <path fill="#231F20" d="M36.74 37.858l6.973 8.41s4.95 5.44 7.062 5.625c0 0 2.295.207 3.992-2.578 2.096-3.415 3.631-7.143 4.548-11.043.513-2.709.535-5.488.066-8.204-.816-4.07-1.36-8.204-1.36-8.204s.478 2.916-4.07 6.779c0 0-5.56 5.08-8.943 6.528-2.657 1.176-5.428 2.077-8.269 2.687zM33.28 37.858l-6.985 8.41s-4.94 5.44-7.05 5.625c0 0-2.307.207-3.994-2.578-2.095-3.415-3.63-7.143-4.548-11.043-.512-2.709-.535-5.488-.065-8.204.816-4.07 1.36-8.204 1.36-8.204s-.479 2.916 4.058 6.779c0 0 5.56 5.08 8.955 6.528 2.657 1.176 5.428 2.077 8.268 2.687z"/>
    <path fill="#231F20" d="M34.987 38.25c-.18.012-.362.012-.544 0-8.381-1.273-15.967-5.678-21.226-12.327-1.208-1.632-1.741-3.069-1.524-4.146.056-.288.173-.56.344-.799.171-.238.391-.437.646-.582l.11-.055C17.71 17.621 26.043 16 35.008 16c8.965 0 17.278 1.6 22.228 4.287l.109.054c.254.147.473.346.644.584.17.239.288.51.346.798.218 1.088-.315 2.513-1.523 4.156-5.207 6.713-12.826 11.131-21.238 12.316-.194.032-.39.05-.588.055zm-22.14-17.615l.152.261c-.18.102-.334.24-.454.408-.12.167-.203.358-.242.56-.185.892.326 2.176 1.414 3.667 5.158 6.516 12.597 10.832 20.814 12.077.325.027.653.027.979 0 8.24-1.17 15.701-5.5 20.802-12.077 1.088-1.469 1.589-2.774 1.415-3.667-.041-.201-.125-.391-.245-.558-.12-.167-.274-.307-.451-.41-4.907-2.666-13.056-4.232-21.978-4.232-8.922 0-17.06 1.566-21.923 4.21l-.283-.24z"/>
    <path fill="#FF4208" d="M52.287 42.874l.098.054-.098-.054zM52.287 51.839h.098s-.066.065-.098 0z"/>
    <path fill="#231F20" d="M18.798 52.154h-.337c-3.438-.468-5.647-6.528-6.713-9.444l-.174-.446c-2.318-6.256-1.404-10.575-1.36-10.75l1.447-9.574.61.098-1.448 9.586c0 .065-.925 4.352 1.338 10.423l.164.457c.946 2.578 3.155 8.617 6.223 9.03 2.611.381 6.887-4.82 12.316-11.359l2.067-2.48.468.391-2.056 2.481c-5.538 6.67-9.618 11.587-12.545 11.587zM51.22 52.154c-2.926 0-6.995-4.917-12.544-11.609l-2.067-2.48.478-.392 2.057 2.48c5.255 6.333 9.444 11.381 12.066 11.381h.26c3.069-.413 5.278-6.452 6.224-9.03l.163-.457c1.344-3.292 1.809-6.876 1.35-10.401l-1.458-9.608.609-.098 1.447 9.586c0 .163.957 4.482-1.371 10.738l-.163.447c-1.088 2.915-3.264 8.976-6.724 9.443h-.326zM35.01 43.875c.612 0 1.11-.497 1.11-1.11 0-.613-.498-1.11-1.11-1.11-.613 0-1.11.497-1.11 1.11 0 .613.497 1.11 1.11 1.11z"/>
    <path fill="#231F20" d="M34.987 38.25c-.18.012-.362.012-.544 0-8.381-1.273-15.967-5.678-21.226-12.327-1.208-1.632-1.741-3.069-1.524-4.146.056-.288.173-.56.344-.799.171-.238.391-.437.646-.582l.11-.055C17.71 17.621 26.043 16 35.008 16c8.965 0 17.278 1.6 22.228 4.287l.109.054c.254.147.473.346.644.584.17.239.288.51.346.798.218 1.088-.315 2.513-1.523 4.156-5.207 6.713-12.826 11.131-21.238 12.316-.194.032-.39.05-.588.055zm-22.14-17.615l.152.261c-.18.102-.334.24-.454.408-.12.167-.203.358-.242.56-.185.892.326 2.176 1.414 3.667 5.158 6.516 12.597 10.832 20.814 12.077.325.027.653.027.979 0 8.24-1.17 15.701-5.5 20.802-12.077 1.088-1.469 1.589-2.774 1.415-3.667-.041-.201-.125-.391-.245-.558-.12-.167-.274-.307-.451-.41-4.907-2.666-13.056-4.232-21.978-4.232-8.922 0-17.06 1.566-21.923 4.21l-.283-.24zM35.01 45.811c-2.57.027-5.132-.29-7.617-.946l.11-.577c2.442.638 4.96.945 7.485.914 2.532.034 5.058-.277 7.507-.925l.174.599c-2.5.654-5.076.969-7.66.935z"/>
    <path fill="#FF4208" d="M57.107 31.232l.098.054c-.038-.008-.072-.027-.098-.054z"/>
    <path fill="#231F20" d="M16.927 29.894l-.207-.588c11.86-3.451 24.453-3.481 36.328-.087l-.195.588c-5.785-1.741-11.803-2.582-17.844-2.492-6.125-.096-12.228.774-18.082 2.579z"/>
</svg>
