<svg xmlns="http://www.w3.org/2000/svg" width="70" height="70" fill="none" viewBox="0 0 70 70">
    <path fill="#231F20" d="M37.653 36.469l4.493 7.894c1.313-.407 2.564-.99 3.72-1.731 1.223-.862 2.307-1.905 3.217-3.092 0 0 1.989 5.906 2.824 6.74l7.451-9.368c.489-.682.837-1.454 1.024-2.271.188-.818.211-1.664.069-2.49-.578-2.567-2.567-10.307-2.567-10.307s.062 2.762-5.658 7.647c0 .041-8.029 6.596-14.573 6.978zM13.948 22.143l-2.566 10.729s-1.031 1.865 2.37 5.524l11.44 14.707s1.278 1.928 1.855-.453c1.474-5.782 3.913-11.273 7.215-16.243-4.076-.72-7.967-2.252-11.44-4.504-5.02-3.525-8.678-7.957-8.874-9.76z"/>
    <path fill="#231F20" d="M35.962 36.974c-.171.012-.343.012-.515 0-7.94-1.205-15.126-5.379-20.108-11.678-1.154-1.546-1.649-2.906-1.443-3.926.053-.273.164-.532.326-.757.162-.226.37-.415.612-.552h.103C19.617 17.515 27.491 16 35.983 16c8.492 0 16.367 1.515 21.046 4.06h.113c.24.14.448.329.61.554.161.226.273.483.328.756.196 1.03-.299 2.38-1.443 3.926-4.936 6.352-12.152 10.53-20.118 11.647-.185.022-.37.033-.557.03zm0-20.48c-8.4 0-16.17 1.495-20.767 4h-.083c-.171.093-.32.224-.434.383-.115.159-.192.341-.225.534-.175.845.299 2.061 1.33 3.463 4.876 6.188 11.918 10.295 19.705 11.491.306.026.612.026.918 0 7.81-1.108 14.882-5.215 19.716-11.45 1.03-1.391 1.505-2.618 1.34-3.463-.04-.19-.118-.371-.232-.53-.114-.157-.26-.29-.428-.387l-.093-.052c-4.555-2.494-12.316-3.988-20.726-3.988h-.02z"/>
    <path fill="#FF4208" d="M52.35 41.313l.093.051c-.026-.026-.058-.044-.093-.051z"/>
    <path fill="#231F20" d="M26.1 54.051c-.17-.015-.334-.07-.479-.16-.144-.089-.267-.21-.357-.355-.103-.124-11.883-15.099-13.285-17.005-1.401-1.907-.896-3.505-.865-3.567l2.762-11.481.567.134L11.67 33.15c0 .093-.495 1.278.784 3.03 1.277 1.752 13.171 16.861 13.284 17.016.091.13.227.222.382.258 0 0 .278-.083.525-.763.114-.289.238-.732.402-1.288 1.48-5.334 3.831-10.387 6.957-14.955l.485.33c-3.09 4.518-5.413 9.515-6.875 14.79-.165.577-.299 1.03-.412 1.33-.268.72-.598 1.102-1.03 1.143l-.073.01zM49.495 47.095c-1.04-.004-2.076-.118-3.092-.34-2.061-.464-4.38-1.763-4.659-2.392-1.183-2.655-2.611-5.195-4.267-7.585l.495-.33c1.67 2.422 3.116 4.993 4.319 7.678 1.223 1.028 2.682 1.736 4.246 2.062 2.649.597 4.998.247 5.246-.052 3.236-4.01 6.895-8.802 7.73-9.946 1.288-1.752.824-2.937.803-2.988l-2.793-11.575.578-.134 2.772 11.523s.619 1.484-.876 3.525c-.845 1.154-4.504 5.957-7.76 9.966-.823.496-1.788.703-2.742.588z"/>
    <path fill="#231F20" d="M35.983 45.631c-2.123.042-4.232-.369-6.184-1.206l.258-.536c3.822 1.54 8.092 1.54 11.914 0l.258.536c-1.971.846-4.102 1.257-6.246 1.206z"/>
    <path fill="#231F20" d="M51.803 46.61c-1.289-2.027-2.236-4.252-2.803-6.586-1.708 2.305-4.201 3.904-7.008 4.494l-.083-.587c2.857-.638 5.36-2.35 6.988-4.783.034-.049.08-.087.136-.109.055-.022.115-.027.173-.014.058.011.11.04.15.083.041.042.068.096.077.154.542 2.482 1.508 4.853 2.855 7.008l-.484.34zM35.983 42.302c.58 0 1.051-.47 1.051-1.051 0-.58-.47-1.051-1.051-1.051-.58 0-1.051.47-1.051 1.05 0 .581.47 1.052 1.051 1.052zM48.64 46.847l-.537 2.34c-.07.312-.263.583-.533.755-.27.172-.597.23-.91.162-.308-.076-.575-.269-.744-.538-.17-.27-.228-.594-.162-.905l.505-2.226 2.38.412z"/>
    <path fill="#fff" d="M46.939 49.66c.421 0 .763-.34.763-.762 0-.421-.342-.763-.763-.763s-.763.342-.763.763.342.763.763.763z"/>
    <path fill="#231F20" d="M18.843 29.058l-.185-.556c11.23-3.27 23.157-3.299 34.403-.083l-.175.557c-11.12-3.169-22.908-3.14-34.012.082h-.03z"/>
</svg>
