<svg xmlns="http://www.w3.org/2000/svg" width="70" height="70" fill="none" viewBox="0 0 70 70">
    <path fill="#231F20" d="M58.379 22.496l1.167 7.96s.683 1.85-1.52 4.657c-2.407 3.242-4.979 6.358-7.706 9.336-.614.694-1.401 1.213-2.281 1.503-.88.29-1.822.342-2.728.148-.93-.578-1.8-1.245-2.599-1.992-.76-.826-5.769-6.11-5.769-6.11 4.55-.8 8.865-2.605 12.628-5.285 0 0 8.114-6.034 8.808-10.217zM11.687 22.496l-1.167 7.96s-.682 1.85 1.509 4.657c2.41 3.24 4.982 6.355 7.706 9.336.614.694 1.401 1.213 2.282 1.503.88.29 1.821.342 2.728.148.93-.58 1.804-1.247 2.609-1.992.748-.826 5.758-6.11 5.758-6.11-4.548-.798-8.859-2.604-12.617-5.285 0 0-8.125-6.034-8.808-10.217z"/>
    <path fill="#FF4208" d="M12.667 20.58c-.03.012-.056.03-.077.055l.1-.055h-.023zM57.4 20.58l.098.055c-.027-.027-.061-.047-.099-.055z"/>
    <path fill="#231F20" d="M34.995 38.46c-.184.012-.368.012-.551 0-8.48-1.285-16.156-5.739-21.48-12.463-1.222-1.663-1.761-3.116-1.541-4.206.058-.29.178-.566.35-.807.173-.24.395-.443.652-.591l.11-.055C17.545 17.618 25.945 16 35.028 16c9.082 0 17.472 1.618 22.481 4.338l.11.055c.257.148.479.35.651.591.173.241.293.516.351.807.22 1.101-.32 2.543-1.541 4.206-5.266 6.79-12.972 11.26-21.48 12.463-.202.013-.404.013-.605 0zm0-21.866c-8.984 0-17.275 1.586-22.196 4.261h-.088c-.18.105-.336.246-.457.415-.121.169-.206.361-.248.565-.176.903.33 2.202 1.432 3.71 5.22 6.594 12.746 10.961 21.06 12.221.33.028.662.028.992 0 8.339-1.18 15.89-5.564 21.05-12.22 1.101-1.487 1.608-2.808 1.431-3.71-.04-.205-.123-.399-.244-.568-.122-.17-.279-.31-.46-.413h-.088C52.29 18.18 44 16.595 35.028 16.595h-.033z"/>
    <path fill="#FF4208" d="M12.667 31.38l-.077.055.1-.055h-.023zM57.4 31.38l.098.055-.099-.055z"/>
    <path fill="#231F20" d="M16.719 30.004l-.21-.594c5.996-1.85 12.245-2.74 18.519-2.643 6.175-.085 12.328.776 18.243 2.555l-.199.594c-5.85-1.761-11.936-2.611-18.044-2.521-6.202-.1-12.382.781-18.31 2.61z"/>
    <path fill="#231F20" d="M23.27 46.552c-2.566 0-6.926-5.186-11.274-10.79l-.936-1.2c-.47-.671-.793-1.433-.95-2.237-.158-.804-.146-1.632.036-2.43.396-2.038 1.21-7.895 1.222-7.95.005-.04.019-.08.04-.115.02-.035.048-.066.08-.091.033-.025.07-.042.11-.052.04-.01.082-.012.122-.006.04.005.08.019.115.04.036.02.067.048.091.08.025.033.043.07.053.11.01.04.012.082.005.122 0 0-.825 5.923-1.222 7.982-.166.71-.181 1.448-.045 2.165.137.717.422 1.397.838 1.997.242.297.562.715.936 1.2 2.455 3.16 8.169 10.547 10.778 10.547 1.993-.077 3.887-2.136 6.078-4.514 1.11-1.254 2.29-2.445 3.534-3.567.028-.03.063-.053.1-.068.038-.016.079-.024.12-.024.04 0 .081.008.12.024.037.016.071.039.1.068.03.029.053.063.069.1.015.039.023.08.023.12 0 .041-.008.082-.023.12-.016.037-.04.072-.069.1-1.225 1.104-2.387 2.277-3.479 3.512-2.279 2.489-4.26 4.636-6.518 4.724l-.055.033zM46.742 46.552h-.066c-2.202-.088-4.24-2.202-6.518-4.724-1.092-1.235-2.254-2.408-3.479-3.512-.03-.028-.053-.063-.069-.1-.015-.038-.024-.079-.024-.12 0-.04.009-.081.025-.12.015-.037.039-.071.068-.1.029-.03.063-.052.1-.068.038-.016.08-.024.12-.024.041 0 .082.008.12.024.037.016.072.039.1.068 1.241 1.122 2.42 2.309 3.535 3.556 2.201 2.39 4.084 4.404 6.077 4.525 2.61 0 8.323-7.376 10.778-10.547.374-.484.694-.903.936-1.2.416-.6.701-1.28.838-1.997.136-.717.12-1.454-.045-2.165-.397-2.058-1.211-7.927-1.222-7.982-.007-.04-.005-.082.005-.121.01-.04.028-.078.053-.11.024-.033.055-.06.09-.082.036-.02.075-.034.116-.039.04-.006.082-.004.121.006.04.01.078.027.11.052.033.025.06.056.082.091.02.035.034.075.04.115 0 .055.825 5.912 1.221 7.95.181.798.194 1.626.036 2.43-.157.804-.48 1.566-.95 2.237l-.935 1.2c-4.338 5.571-8.698 10.757-11.263 10.757zM35.028 44.152c.62 0 1.122-.503 1.122-1.123s-.502-1.123-1.122-1.123c-.62 0-1.123.502-1.123 1.123 0 .62.502 1.123 1.123 1.123z"/>
    <path fill="#231F20" d="M35.028 46.111c-2.826-.07-5.634-.468-8.368-1.189l.176-.605c5.35 1.556 11.033 1.556 16.383 0l.176.605c-2.734.72-5.542 1.12-8.367 1.19z"/>
</svg>
