<svg xmlns="http://www.w3.org/2000/svg" width="70" height="70" fill="none" viewBox="0 0 70 70">
    <path fill="#231F20" d="M58.228 22.776l1.399 7.932s.66 1.542-1.4 3.503L43.51 48.16s-2.424-7.205-6.61-10.092c3.196-.658 6.292-1.732 9.21-3.195 3.426-2.005 10.576-6.588 12.119-12.096zM11.78 22.776l-1.389 7.932S9.72 32.25 11.78 34.21L26.51 48.16s2.413-7.205 6.61-10.092c-3.2-.657-6.3-1.731-9.22-3.195-3.46-2.005-10.621-6.588-12.12-12.096z"/>
    <path fill="#231F20" d="M34.982 38.508c-.188.012-.375.012-.562 0-8.507-1.283-16.207-5.754-21.539-12.504-1.223-1.653-1.752-3.107-1.542-4.198.054-.292.173-.569.346-.81.173-.242.397-.443.656-.59l.11-.065C17.464 17.63 25.871 16 34.96 16c9.09 0 17.496 1.63 22.498 4.34l.11.067c.26.144.485.344.659.586.173.242.29.52.343.813.22 1.102-.308 2.545-1.542 4.198-5.268 6.799-12.979 11.277-21.495 12.482l-.55.022zm0-21.88c-8.99 0-17.286 1.598-22.2 4.264l-.1.055c-.181.102-.338.243-.46.412-.122.17-.205.363-.244.568-.177.904.33 2.204 1.432 3.702 5.224 6.597 12.756 10.968 21.076 12.23.33.032.662.032.991 0 8.347-1.185 15.906-5.571 21.076-12.23 1.102-1.487 1.609-2.798 1.422-3.702-.035-.206-.117-.402-.239-.572-.122-.17-.282-.31-.467-.408l-.088-.055c-4.892-2.666-13.198-4.264-22.177-4.264h-.022z"/>
    <path fill="#231F20" d="M26.73 48.798l-.364-.341c-.077-.066-7.602-7.073-9.398-8.814-.705-.705-3.514-3.438-5.64-5.509-.553-.53-.955-1.2-1.164-1.937-.21-.738-.218-1.518-.026-2.26.396-2.039 1.212-7.889 1.223-7.955.016-.08.06-.15.125-.2.066-.048.146-.071.227-.064.04.005.08.019.116.04.035.02.066.048.09.08.025.033.043.07.053.11.01.04.012.082.006.122 0 .067-.827 5.928-1.223 7.988-.168.639-.163 1.31.013 1.947.176.637.518 1.215.99 1.678 2.126 2.016 4.946 4.748 5.651 5.508 1.565 1.565 7.514 7.117 9.034 8.527.606-1.707 2.92-7.59 6.533-9.816.036-.022.075-.036.116-.042.04-.006.083-.004.123.006.04.01.077.029.11.054.033.025.06.056.081.092.042.071.055.155.037.235-.019.08-.067.15-.136.195-3.955 2.435-6.401 9.85-6.423 9.916l-.154.44zM35.004 44.215c.62 0 1.123-.503 1.123-1.124 0-.62-.503-1.123-1.123-1.123-.621 0-1.124.503-1.124 1.123s.503 1.124 1.123 1.124zM43.278 48.798l-.155-.474c0-.077-2.467-7.491-6.423-9.915-.035-.021-.066-.049-.09-.082-.026-.033-.044-.07-.054-.11-.01-.04-.012-.082-.006-.122.005-.041.02-.08.04-.116.021-.035.049-.066.082-.09.033-.026.07-.044.11-.054.04-.01.082-.012.122-.007.041.006.08.02.116.041 3.613 2.203 5.927 8.109 6.544 9.816 1.51-1.41 7.459-6.963 9.023-8.527.716-.716 3.526-3.448 5.652-5.509.476-.46.82-1.038.996-1.675.176-.637.178-1.31.006-1.95-.396-2.06-1.212-7.92-1.222-7.987-.01-.083.014-.166.065-.232.052-.066.127-.11.21-.12.08-.005.16.02.225.068.064.048.11.118.128.196 0 .066.815 5.916 1.212 7.955.195.742.188 1.523-.021 2.261-.21.739-.613 1.407-1.17 1.936-2.115 2.016-4.924 4.749-5.64 5.509-1.796 1.796-9.32 8.813-9.398 8.813l-.352.375z"/>
    <path fill="#231F20" d="M35.004 46.165c-2.398.03-4.787-.264-7.106-.87l.176-.606c4.549 1.146 9.31 1.146 13.86 0l.176.606c-2.32.606-4.71.9-7.106.87zM16.682 30.047l-.198-.595c12.007-3.48 24.751-3.511 36.775-.088l-.198.606c-11.886-3.386-24.485-3.359-36.357.077h-.022z"/>
</svg>
