<svg xmlns="http://www.w3.org/2000/svg" width="70" height="70" fill="none" viewBox="0 0 70 70">
    <path fill="#231F20" d="M12.948 21.906s-3.103 13.54-2.7 18.763c0 0 5.286 1.22 15.08-.91 0 0 5.99-1.603 8.12-3.03 0 0-8.057-1.739-13.146-5.731-5.09-3.993-7.582-7.799-7.354-9.092zM56.897 21.906S60 35.446 59.607 40.67c0 0-5.285 1.22-15.091-.91 0 0-5.989-1.603-8.12-3.03 0 0 8.058-1.739 13.157-5.731 5.1-3.993 7.603-7.799 7.344-9.092z"/>
    <path fill="#FF4208" d="M14.065 20.613l-.041-.082v.062l-.01-.063-.239-.434.145-.093h1.283l-1.138.61zM55.935 20.613l.02-.052-.03.042-.062-.042.041-.072-.062.072-1.034-.558h1.251l.155.093h.01l-.227.393-.01.104v-.073l-.052.093z"/>
    <path fill="#231F20" d="M34.98 37.1c-.176.012-.352.012-.528 0-7.963-1.209-15.171-5.393-20.17-11.708-1.158-1.562-1.655-2.927-1.448-3.951.051-.275.162-.535.324-.762.163-.227.374-.415.617-.552l.238.207-.134-.259C18.575 17.52 26.477 16 34.999 16c8.524 0 16.426 1.52 21.122 4.075l.104.052c.243.138.455.326.619.553.164.227.277.486.332.76.197 1.035-.3 2.39-1.448 3.952-4.95 6.381-12.193 10.582-20.19 11.708-.186.013-.373.013-.559 0zM13.92 20.355l.155.248c-.171.096-.32.228-.436.387-.116.159-.197.34-.236.533-.166.849.31 2.069 1.345 3.486 4.91 6.193 11.983 10.295 19.797 11.481.306.026.614.026.92 0 7.838-1.109 14.935-5.227 19.787-11.48 1.035-1.397 1.51-2.639 1.345-3.487-.04-.191-.118-.372-.233-.53-.114-.16-.26-.292-.429-.39-4.665-2.534-12.412-4.024-20.894-4.024-8.481 0-16.218 1.49-20.842 4.003l-.279-.227z"/>
    <path fill="#231F20" d="M13.403 41.32c-1.059.026-2.118-.04-3.165-.196L10 41.072v-.248c.3-6.5 1.238-12.954 2.803-19.27.02-.074.067-.138.132-.178.066-.04.144-.055.22-.039.076.02.142.069.183.137.04.067.053.148.034.225-1.533 6.192-2.465 12.517-2.783 18.887 2.814.435 14.833.186 22.756-4.137.07-.034.151-.04.226-.017.075.023.138.073.177.141.018.034.03.071.033.11.003.037-.001.076-.012.112-.012.037-.03.071-.055.1-.025.03-.056.054-.09.071-6.34 3.475-15.318 4.355-20.221 4.355zM35 42.448c.583 0 1.055-.472 1.055-1.055s-.472-1.055-1.055-1.055-1.055.472-1.055 1.055.472 1.055 1.055 1.055zM56.597 41.32c-4.903 0-13.88-.879-20.283-4.323-.035-.017-.065-.041-.09-.07-.024-.03-.043-.064-.055-.1-.011-.037-.015-.076-.012-.114.004-.038.015-.075.033-.109.039-.068.102-.118.177-.141.075-.023.155-.017.226.017 7.975 4.292 19.994 4.53 22.807 4.137-.318-6.37-1.25-12.695-2.782-18.887-.02-.077-.007-.158.034-.226.04-.067.106-.116.183-.136.075-.016.154-.002.22.039.065.04.112.104.132.178 1.565 6.316 2.507 12.77 2.813 19.27v.248l-.238.052c-1.048.146-2.107.201-3.165.166z"/>
    <path fill="#231F20" d="M35 44.527c-6.103 0-11.523-1.562-13.83-3.992l.425-.404c2.162 2.276 7.55 3.806 13.446 3.806S46.1 42.48 48.353 40.224l.414.414c-2.39 2.369-7.778 3.889-13.767 3.889z"/>
    <path fill="#FF4208" d="M13.982 30.45l-.083.052.094-.052h-.01zM55.997 30.45l.093.052-.093-.052z"/>
    <path fill="#231F20" d="M17.799 29.157l-.186-.559C23.242 26.862 29.11 26.024 35 26.116c5.802-.081 11.582.728 17.14 2.4l-.177.558c-5.5-1.65-11.22-2.45-16.963-2.369-5.827-.091-11.632.736-17.201 2.452z"/>
</svg>
