<svg xmlns="http://www.w3.org/2000/svg" width="70" height="70" fill="none" viewBox="0 0 70 70">
    <path fill="#231F20" d="M56.764 22.03l2.897 11.432c-.054 1.319-.581 2.574-1.484 3.536l-12.628 16.38s-.897 1.154-1.412-.454c-.516-1.608-3.144-8.989-4.814-11.751-1.67-2.763-2.185-3.66-2.763-4.69 0 0 6.608-1.093 10.463-3.856 3.855-2.762 9.937-7.968 9.741-10.597zM13.15 22.03l-2.886 11.432c.048 1.318.571 2.574 1.474 3.536l12.587 16.38s.907 1.154 1.422-.454c.515-1.608 3.092-8.989 4.814-11.751 1.721-2.763 2.185-3.66 2.763-4.69 0 0-6.618-1.093-10.474-3.856-3.855-2.762-9.896-7.968-9.7-10.597z"/>
    <path fill="#FF4208" d="M14.068 20.288l-.083.052.093-.052h-.01zM55.92 20.288l.092.052-.093-.052z"/>
    <path fill="#231F20" d="M34.973 37.029c-.175.012-.35.012-.526 0-7.939-1.205-15.126-5.375-20.111-11.67-1.145-1.545-1.64-2.906-1.444-3.937.054-.271.165-.528.327-.752.162-.224.37-.41.612-.547l.247.196-.134-.258C18.624 17.515 26.499 16 34.994 16c8.493 0 16.369 1.515 21.049 4.061l.103.062c.244.135.454.323.617.55.162.226.272.485.32.76.207 1.03-.288 2.38-1.442 3.927-4.93 6.358-12.145 10.543-20.111 11.669-.186.012-.372.012-.557 0zm-20.988-16.69l.155.248c-.173.097-.322.23-.437.39-.116.16-.196.344-.233.538-.165.835.31 2.062 1.34 3.463 4.888 6.173 11.935 10.262 19.72 11.443.308.03.619.03.927 0 7.81-1.109 14.882-5.212 19.72-11.442 1.03-1.392 1.505-2.619 1.34-3.464-.036-.193-.115-.376-.231-.535-.116-.158-.266-.29-.439-.383-4.639-2.515-12.37-4.01-20.812-4.01-8.443 0-16.174 1.495-20.771 3.99l-.279-.237z"/>
    <path fill="#FF4208" d="M51.363 41.41l.093.051-.093-.051z"/>
    <path fill="#231F20" d="M25.098 54.1c-.167-.017-.328-.07-.471-.158-.143-.088-.264-.206-.354-.348-.114-.134-11.896-15.101-13.298-17.008-1.402-1.907-.886-3.515-.866-3.577l2.763-11.484.577.145-2.783 11.524c0 .103-.495 1.289.794 3.093 1.288 1.804 13.174 16.854 13.287 17.008.113.155.247.289.371.268.124-.02.278-.082.536-.763.103-.298.237-.731.402-1.288 1.472-5.34 3.82-10.397 6.948-14.968l.495.34c-3.097 4.516-5.42 9.515-6.876 14.793-.175.577-.31 1.03-.412 1.33-.268.721-.608 1.092-1.031 1.144l-.082-.052z"/>
    <path fill="#231F20" d="M34.993 45.698c-2.124.039-4.233-.376-6.185-1.216l.258-.536c3.823 1.54 8.094 1.54 11.916 0l.248.536c-1.967.85-4.094 1.265-6.237 1.216zM34.993 42.368c.581 0 1.052-.47 1.052-1.05 0-.582-.47-1.052-1.052-1.052-.58 0-1.051.47-1.051 1.051 0 .58.47 1.051 1.051 1.051z"/>
    <path fill="#fff" d="M24.396 49.842c.382 0 .691-.31.691-.69 0-.382-.31-.691-.69-.691-.382 0-.691.309-.691.69 0 .382.31.691.69.691z"/>
    <path fill="#231F20" d="M44.879 54.1h-.082c-.423 0-.753-.423-1.031-1.145-.114-.31-.248-.752-.413-1.33-1.46-5.276-3.783-10.274-6.875-14.792l.484-.34c3.13 4.57 5.481 9.628 6.958 14.967.165.557.29 1.031.402 1.289.248.68.474.752.526.763.052.01.31-.165.361-.248.051-.082 11.916-15.132 13.308-17.029 1.391-1.897.825-2.938.804-2.99L56.527 21.67l.578-.145 2.773 11.535s.608 1.485-.887 3.526c-1.495 2.04-13.184 16.874-13.298 17.029-.093.134-.214.247-.354.33-.14.084-.297.136-.46.154z"/>
    <path fill="#fff" d="M45.59 49.842c.382 0 .69-.31.69-.69 0-.382-.308-.691-.69-.691-.381 0-.69.309-.69.69 0 .382.309.691.69.691z"/>
    <path fill="#FF4208" d="M14.068 30.39l-.083.062.093-.062h-.01zM55.92 30.39l.092.062-.093-.062z"/>
    <path fill="#231F20" d="M17.85 29.112l-.185-.556c11.235-3.257 23.16-3.286 34.41-.083l-.186.557c-5.479-1.645-11.176-2.441-16.896-2.361-5.807-.092-11.592.732-17.142 2.443z"/>
</svg>
