<svg xmlns="http://www.w3.org/2000/svg" width="70" height="70" fill="none" viewBox="0 0 70 70">
    <path fill="#231F20" d="M57.295 21.104l2.463 10.377-.695 2.168s-5.01 8.209-6.493 9.64l-9.103 11.408-1.053.694-.979-.747-.347-3.63-1.126-8.125-1.82-4.473-1.38-2.357s7.968-1.474 13.177-5.81c-.074 0 7.009-5.651 7.356-9.145zM12.59 21.104l-2.463 10.377.683 2.168s5.02 8.209 6.494 9.64l9.156 11.408 1.052.694.979-.747.347-3.63 1.126-8.125 1.821-4.473 1.379-2.357s-7.967-1.474-13.187-5.81c.032 0-7.03-5.651-7.388-9.145z"/>
    <path fill="#FF4208" d="M13.694 19.704l-.053-.084-.252-.431.158-.095h1.294l-1.052.568h-.074l-.021.042zm0-.105v.053-.053zM56.295 19.704l.053-.2-.126.158-1.053-.568 1.38.052h.062l-.22.41v.096-.021l-.096.073zm.064-.231v.052-.094.042z"/>
    <path fill="#231F20" d="M34.963 36.47c-.175.011-.35.011-.526 0-8.106-1.229-15.444-5.486-20.532-11.914-1.169-1.59-1.684-2.968-1.474-4.02.056-.278.17-.541.335-.772.165-.23.377-.423.623-.565l.252.21-.136-.262C18.282 16.546 26.312 15 34.995 15c8.682 0 16.712 1.547 21.49 4.146h.105c.247.141.46.333.625.564.166.23.28.494.333.773.21 1.052-.305 2.431-1.474 4.02-5.024 6.51-12.39 10.804-20.532 11.966-.193.013-.386.013-.579 0zM13.547 19.43l.157.253c-.176.099-.328.235-.446.398-.118.164-.2.351-.237.55-.169.852.315 2.104 1.368 3.535 4.991 6.3 12.185 10.475 20.132 11.682.315.026.632.026.947 0 7.972-1.129 15.19-5.319 20.122-11.681 1.053-1.421 1.547-2.684 1.369-3.537-.033-.197-.111-.384-.228-.546-.117-.163-.27-.296-.446-.39-4.757-2.579-12.629-4.094-21.259-4.094s-16.512 1.515-21.206 4.073l-.273-.242z"/>
    <path fill="#231F20" d="M27.733 55.633c-.568 0-1.252-.494-2.105-1.515C23.018 51.034 10 35.428 10 31.45c.58-3.636 1.388-7.232 2.42-10.766l.569.168c-1.016 3.506-1.821 7.07-2.41 10.672 0 2.883 8.345 13.786 15.491 22.248 1.116 1.305 1.61 1.336 1.768 1.273.495-.147.61-1.557.663-2.241v-.506c.127-.957.242-1.873.337-2.757.621-5.262 1.105-9.377 4.094-13.566l.484.348c-2.894 4.062-3.368 8.135-3.978 13.281-.105.895-.21 1.81-.337 2.768v.484c-.095 1.053-.21 2.484-1.052 2.768-.105.016-.21.02-.316.01zM42.256 55.634c-.098.01-.196.01-.294 0-.874-.285-.99-1.726-1.053-2.768v-.484c-.126-.958-.242-1.874-.347-2.768-.6-5.146-1.052-9.22-3.978-13.282l.494-.347c2.979 4.21 3.463 8.325 4.084 13.566.105.884.21 1.8.337 2.757v.505c0 .674.168 2.105.652 2.242.168.063.663 0 1.768-1.274 7.146-8.419 15.492-19.364 15.492-22.29-.587-3.588-1.392-7.138-2.41-10.629l.578-.168c1.023 3.533 1.831 7.125 2.421 10.755 0 4.02-13.008 19.628-15.618 22.711-.915.979-1.557 1.474-2.126 1.474zM34.995 41.931c.593 0 1.073-.48 1.073-1.073s-.48-1.074-1.073-1.074-1.074.48-1.074 1.074c0 .593.48 1.073 1.074 1.073z"/>
    <path fill="#231F20" d="M35.047 44.036c-1.609.005-3.216-.104-4.81-.326l.085-.59c3.17.443 6.386.443 9.556 0l.084.59c-1.628.227-3.27.336-4.915.326z"/>
    <path fill="#FF4208" d="M13.62 29.713c-.024.005-.049.005-.073 0h.094-.02z"/>
    <path fill="#231F20" d="M17.493 28.397l-.189-.568c5.727-1.768 11.698-2.62 17.691-2.526 5.903-.081 11.784.742 17.438 2.442l-.189.568c-11.354-3.238-23.391-3.209-34.73.084h-.02z"/>
</svg>
