<svg xmlns="http://www.w3.org/2000/svg" width="70" height="70" fill="none" viewBox="0 0 70 70">
    <path fill="#231F20" d="M12.34 22.054l-2.184 10.71-.064 1.314 2.12 15.067 3.107-1.188 12.618-7.273 5.492-3.5s-16.074-2.777-21.09-15.13zM57.593 22.054l2.184 10.71.064 1.314-2.12 15.067-3.107-1.188-12.618-7.273-5.492-3.5s16.074-2.777 21.09-15.13z"/>
    <path fill="#231F20" d="M34.956 37.63c-.18.012-.361.012-.541 0-8.166-1.237-15.56-5.527-20.686-12.003-1.177-1.6-1.686-2.99-1.485-4.05.056-.28.172-.545.338-.777.166-.232.38-.426.627-.57l.117-.052C18.14 17.558 26.24 16 34.976 16c8.738 0 16.838 1.559 21.652 4.178l.106.053c.248.141.463.335.63.567.166.233.28.498.335.78.212 1.06-.297 2.448-1.484 4.05-5.072 6.539-12.493 10.844-20.687 12.002-.19.012-.382.012-.572 0zM13.368 20.496l.16.254c-.178.1-.332.236-.45.401-.12.165-.201.354-.24.553-.17.86.318 2.121 1.378 3.563 5.03 6.346 12.278 10.551 20.284 11.77.317.026.636.026.954 0 8.034-1.137 15.31-5.359 20.283-11.77 1.06-1.431 1.548-2.704 1.379-3.563-.039-.2-.12-.388-.24-.553-.119-.165-.272-.301-.45-.4-4.781-2.599-12.723-4.125-21.407-4.125-8.683 0-16.636 1.526-21.365 4.103l-.286-.233z"/>
    <path fill="#231F20" d="M11.99 49.675v-.36c-.223-1.633-.477-3.394-.742-5.143-.732-4.91-1.421-9.543-1.209-11.356.444-3.77 1.196-7.496 2.248-11.144.012-.037.031-.073.057-.103.026-.03.058-.055.093-.073.036-.018.075-.028.114-.03.04-.003.08.002.117.016.038.01.073.029.103.054.03.024.055.055.073.09.018.035.029.073.031.112.003.039-.003.078-.016.115-1.036 3.613-1.777 7.304-2.216 11.037-.212 1.718.51 6.542 1.198 11.197.244 1.612.488 3.245.7 4.771 4.04-1.611 16.901-9.436 20.845-11.854.034-.02.071-.035.11-.041.039-.007.079-.005.117.003.038.01.075.026.107.048.032.023.06.052.08.086.02.033.035.07.042.11.006.038.005.078-.004.116-.009.039-.025.075-.048.107s-.052.06-.085.08c-4.082 2.513-17.665 10.773-21.312 12.045l-.403.117zM57.964 49.675l-.35-.117c-3.658-1.272-17.24-9.542-21.312-12.045-.067-.042-.115-.11-.133-.187-.018-.077-.004-.159.038-.226.042-.068.11-.116.187-.134.078-.017.159-.004.227.038 3.944 2.418 16.795 10.243 20.845 11.854.212-1.526.456-3.18.69-4.77.699-4.656 1.42-9.48 1.208-11.198-.433-3.735-1.178-7.427-2.227-11.037-.013-.074.001-.15.04-.214.04-.064.1-.112.172-.134.072-.022.15-.018.217.013.069.031.124.086.154.154 1.051 3.647 1.8 7.374 2.238 11.144.222 1.803-.467 6.447-1.199 11.356-.265 1.75-.53 3.51-.742 5.142l-.053.36zM34.977 43.112c.597 0 1.081-.485 1.081-1.082 0-.597-.484-1.081-1.081-1.081s-1.081.484-1.081 1.081.484 1.082 1.08 1.082z"/>
    <path fill="#231F20" d="M34.977 45.243c-3.766.082-7.51-.6-11.006-2.004l.244-.551c6.951 2.615 14.615 2.615 21.566 0l.244.55c-3.508 1.413-7.267 2.095-11.048 2.005z"/>
    <path fill="#FF4208" d="M56.501 30.812l.095.053-.095-.053z"/>
    <path fill="#231F20" d="M17.344 29.487l-.19-.573c5.77-1.781 11.785-2.64 17.823-2.544 5.948-.083 11.873.747 17.569 2.46l-.19.572c-5.636-1.692-11.496-2.51-17.38-2.428-5.972-.095-11.923.753-17.632 2.513z"/>
</svg>
